<svg xmlns="http://www.w3.org/2000/svg" width="27.23" height="21.5" viewBox="0 0 27.23 21.5"><defs><style>.a{fill:#6c44e1;}</style></defs><g transform="translate(0)"><path class="a" d="M21.591,61.385a7.613,7.613,0,0,0-15.064-1.46H6.453a6.453,6.453,0,1,0,0,12.906H10.96a.581.581,0,1,0,0-1.161H6.453a5.292,5.292,0,1,1,0-10.584c.155,0,.32.008.5.026a.581.581,0,0,0,.63-.5,6.452,6.452,0,0,1,12.844.879c0,.128-.01.26-.02.4l0,.059a.581.581,0,0,0,.637.619,4.631,4.631,0,0,1,.463-.023,4.562,4.562,0,1,1,0,9.124H16.767a.581.581,0,1,0,0,1.161h4.739a5.723,5.723,0,0,0,.084-11.446Z" transform="translate(0 -53.873)"/><g transform="translate(9.134 2.729)"><g transform="translate(0 0)"><path class="a" d="M176.58,105.192a4.9,4.9,0,0,0-4.835,4.221.581.581,0,0,0,.5.654.588.588,0,0,0,.079.005.581.581,0,0,0,.575-.5,3.733,3.733,0,0,1,3.684-3.217.581.581,0,0,0,0-1.161Z" transform="translate(-171.74 -105.192)"/></g></g><g transform="translate(10.919 12.025)"><g transform="translate(0 0)"><path class="a" d="M211,282.113l-2.112-1.887a.958.958,0,0,0-1.278,0l-2.112,1.887a.581.581,0,0,0,.774.866l1.4-1.248v7.144a.581.581,0,1,0,1.161,0v-7.144l1.4,1.248a.581.581,0,1,0,.774-.866Z" transform="translate(-205.302 -279.982)"/></g></g></g></svg>