<svg xmlns="http://www.w3.org/2000/svg" xmlns:xlink="http://www.w3.org/1999/xlink" width="168" height="119" viewBox="0 0 168 119">
  <defs>
    <linearGradient id="linear-gradient" x1="0.706" y1="0.146" x2="0" y2="0.794" gradientUnits="objectBoundingBox">
      <stop offset="0" stop-color="#f5f2ff"/>
      <stop offset="1" stop-color="#f5f2ff" stop-opacity="0"/>
    </linearGradient>
    <clipPath id="clip-leave_balance_illustration">
      <rect width="168" height="119"/>
    </clipPath>
  </defs>
  <g id="leave_balance_illustration" clip-path="url(#clip-leave_balance_illustration)">
    <g id="Group_5156" data-name="Group 5156" transform="translate(-787 -363)">
      <path id="Path_232" data-name="Path 232" d="M731.442,500.182s-.8-57.4,40.638-61.93,120.321-8.308,149.8-54.377,148.209-58.154,140.241,27.189S949.772,563.622,831.046,534.923,731.442,500.182,731.442,500.182Z" transform="translate(-39.261 15)" opacity="0.8" fill="url(#linear-gradient)"/>
      <g id="Group_136" data-name="Group 136" transform="translate(-802.562 -690.561)">
        <g id="Group_113" data-name="Group 113" transform="translate(1590.562 1074.939)">
          <g id="Group_97" data-name="Group 97" transform="translate(51.157 124.972)">
            <path id="Path_186" data-name="Path 186" d="M1882.288,1787.957s.39,2.736.439,3.147,4.343-.242,4.343-.242l.348-3.257S1882.825,1787.571,1882.288,1787.957Z" transform="translate(-1882.288 -1787.604)" fill="#5c544d"/>
          </g>
          <g id="Group_98" data-name="Group 98" transform="translate(44.098 127.939)">
            <path id="Path_187" data-name="Path 187" d="M1849.489,1804.706a11.635,11.635,0,0,1-2.676,2.367c-1.316.719-3.384,1-4.162,1.747-.562.537-2.046,2.848,3.419,2.8s8.1.326,8.686-.56-.847-6.541-.847-6.541A11.466,11.466,0,0,1,1849.489,1804.706Z" transform="translate(-1842.037 -1804.521)" fill="#3c4145"/>
          </g>
          <g id="Group_99" data-name="Group 99" transform="translate(20.389 124.972)">
            <path id="Path_188" data-name="Path 188" d="M1706.83,1787.957s.39,2.736.439,3.147,4.343-.242,4.343-.242l.348-3.257S1707.367,1787.571,1706.83,1787.957Z" transform="translate(-1706.83 -1787.604)" fill="#5c544d"/>
          </g>
          <g id="Group_100" data-name="Group 100" transform="translate(10.806 127.939)">
            <path id="Path_189" data-name="Path 189" d="M1662.159,1804.706a11.632,11.632,0,0,1-2.677,2.367c-1.316.719-6.158,1.309-6.937,2.052-.562.537-1.5,2.7,6.194,2.5,5.463-.144,8.1.326,8.686-.56s-.847-6.541-.847-6.541S1665.359,1805.023,1662.159,1804.706Z" transform="translate(-1652.183 -1804.521)" fill="#3c4145"/>
          </g>
          <g id="Group_101" data-name="Group 101" transform="translate(37.749 54.696)">
            <path id="Path_190" data-name="Path 190" d="M1817.711,1386.85s2.285,6.788,1.984,12.639,1.182,12.252,1.788,18.364c.676,6.813,3.441,22.943,3.541,26.587s-.429,15.282-.429,15.282l-5.536.128s-4.649-28.2-5.853-31.075-7.175-23.389-7.376-25.691S1817.711,1386.85,1817.711,1386.85Z" transform="translate(-1805.829 -1386.85)" fill="#33373b"/>
          </g>
          <g id="Group_102" data-name="Group 102" transform="translate(19.641 53.913)">
            <path id="Path_191" data-name="Path 191" d="M1709.284,1384.372s-3.041,16.035-3.442,19.615-.669,17.328-.87,19.566-1.338,29.285-2.408,32.61h7.077s5.432-19.662,5.432-28.965,4.2-20.224,6.906-26.363,8.91-6.283,10.576-17.672C1732.555,1383.164,1711.539,1380.76,1709.284,1384.372Z" transform="translate(-1702.564 -1382.38)" fill="#3c4145"/>
          </g>
          <g id="Group_103" data-name="Group 103" transform="translate(30.808 0.594)">
            <path id="Path_192" data-name="Path 192" d="M1776.179,1078.835s-5.578-2.083-8.15,2.163-2.324,12.748.487,13.793,7.036.5,8.475-2.158,2.739-6.5,2.677-9.066S1777.644,1079.576,1776.179,1078.835Z" transform="translate(-1766.244 -1078.324)" fill="#eea886"/>
          </g>
          <g id="Group_104" data-name="Group 104" transform="translate(33.855 11.659)">
            <path id="Path_193" data-name="Path 193" d="M1783.786,1146.567a4.684,4.684,0,0,1-.147,2.183c-.372.72,7.016.739,7.016.739a48.682,48.682,0,0,1,1.737-7.228C1793.53,1138.951,1783.786,1146.567,1783.786,1146.567Z" transform="translate(-1783.625 -1141.427)" fill="#eea886"/>
          </g>
          <g id="Group_105" data-name="Group 105" transform="translate(31.455)">
            <path id="Path_194" data-name="Path 194" d="M1781.1,1087.432s-.51.841-2.591.515-4.621-3.1-5.491-3.4-.878-.815-.878-.815l-.544.795-.923.058s.842-2.477-.428-3.488,1.318-8.019,7.995-5.686c0,0,5.127,1.413,4.941,4.329S1782.251,1085.979,1781.1,1087.432Z" transform="translate(-1769.936 -1074.939)" fill="#434343"/>
          </g>
          <g id="Group_106" data-name="Group 106" transform="translate(33.431 16.871)">
            <path id="Path_195" data-name="Path 195" d="M1781.2,1173.171s.023-1.376.647-1.508,6.886-.734,7.651-.433v1.6S1788.025,1173.741,1781.2,1173.171Z" transform="translate(-1781.202 -1171.146)" fill="#e2d2ca"/>
          </g>
          <g id="Group_107" data-name="Group 107" transform="translate(33.637 6.669)">
            <path id="Path_196" data-name="Path 196" d="M1782.543,1114.035c.117-.489,1.361-1.887,1.837-.39s-.72,3.51-1.387,3.337S1782.248,1115.275,1782.543,1114.035Z" transform="translate(-1782.38 -1112.972)" fill="#eea886"/>
          </g>
          <g id="Group_108" data-name="Group 108" transform="translate(10.204 18.557)">
            <path id="Path_197" data-name="Path 197" d="M1671.977,1181.1s-3.433,1.234-7.409,2.924a8.347,8.347,0,0,0-5.069,6.759c-.263,2.681-3.118,16.911-3.653,18.115s-6.866,20.547-7.089,20.948,5.167,2.638,5.523,2.46,6.13-17.642,6.709-18.935c0,0,3.323-10.472,3.412-12.032,0,0,.1,4.449.274,5.7s-2.955,25.5-2.866,26.164,14.241,1.519,19.9.895a69.355,69.355,0,0,0,10.234-1.928s-4.457-19.135-4.32-21.257c.3-4.622,1.843-13.328,1.843-13.328l4.618,8.707-5.911,15.208,1.354,4.622s10.984-16.6,11.341-18.115-.538-3.448-1.118-4.7-4.388-10.753-5.28-12.09-2.4-6.7-6.042-8.187a56.957,56.957,0,0,0-8.158-2.268Z" transform="translate(-1648.751 -1180.764)" fill="#7151dc"/>
          </g>
          <g id="Group_109" data-name="Group 109" transform="translate(0 51.719)">
            <rect id="Rectangle_34" data-name="Rectangle 34" width="26.715" height="18.637" transform="translate(4.629 0) rotate(14.382)" fill="#d6d6d6"/>
          </g>
          <g id="Group_110" data-name="Group 110" transform="translate(6.9 71.589)">
            <path id="Path_198" data-name="Path 198" d="M1630.965,1483.184s-.74,1.2-1.01,1.536.664.555,1.064.21S1630.965,1483.184,1630.965,1483.184Z" transform="translate(-1629.907 -1483.184)" fill="#c98462"/>
          </g>
          <g id="Group_111" data-name="Group 111" transform="translate(7.898 67.24)">
            <path id="Path_199" data-name="Path 199" d="M1641.051,1466.811a2.866,2.866,0,0,0,.531-.748s.13-.545.246-.927a2.7,2.7,0,0,1,.1-.291,5.259,5.259,0,0,0,.592-1.572c.114-.737.437-4.048.437-4.048l-2-.5-1.61-.34s-3.479,3.47-3.665,4.146a1.8,1.8,0,0,0-.042.195,6.692,6.692,0,0,0,.05,1.38c-.006.115.011,1.266.279,1.482a1.125,1.125,0,0,0,1.063.256,2.687,2.687,0,0,0,1.383.521,1.67,1.67,0,0,0,1.45.269S1640.611,1467.093,1641.051,1466.811Z" transform="translate(-1635.603 -1458.38)" fill="#de9d7d"/>
          </g>
          <g id="Group_112" data-name="Group 112" transform="translate(10.211 52.63)">
            <path id="Path_200" data-name="Path 200" d="M1659.749,1377.169s-4.593,13.91-5.437,15.369a15.15,15.15,0,0,1-5.523-2.46l5.043-15.012Z" transform="translate(-1648.789 -1375.067)" fill="#7151dc"/>
          </g>
        </g>
        <g id="Group_135" data-name="Group 135" transform="translate(1657.884 1078.903)">
          <g id="Group_115" data-name="Group 115" transform="translate(50.472 63.534)">
            <g id="Group_114" data-name="Group 114">
              <path id="Path_201" data-name="Path 201" d="M2263.83,1463.694s-.186-3.2-1.035-3.7-.358.494-.358.494.477,2.325.582,3.267A4.835,4.835,0,0,0,2263.83,1463.694Z" transform="translate(-2262.296 -1459.854)" fill="#1d3b54"/>
            </g>
          </g>
          <path id="Path_202" data-name="Path 202" d="M2142.258,1097.558s7.965-.662,7.747,7.716-1.546,9.639,0,15.559-7.765-3.362-7.765-3.362Z" transform="translate(-2112.824 -1097.546)" fill="#434343"/>
          <path id="Path_203" data-name="Path 203" d="M2009.9,1209.378s-11.282,7.039-12.237,6.29c-1.334-1.046-4.959-9.978-4.959-9.978l-2.84,1.351s3.386,15.442,7.949,14.306,15.036-7.614,15.036-7.614Z" transform="translate(-1987.166 -1186.727)" fill="#eea987"/>
          <path id="Path_204" data-name="Path 204" d="M2114.358,1386.82a36.72,36.72,0,0,1,3.968,6.211c1.035,2.473,2.76,7.893,2.53,12.091s-1.61,12.077-1.208,13.86.8,5.463,1.236,6.728,2.157,4.946,2.33,8.741-2.415,20.473-2.3,22.026-2.933.632-2.933.632-1.035-15.067-1.61-17.655-1.265-11.387-1.782-12.019-1.933-7.189-1.714-8.224-5.647-16.562-5.992-19.668-8.994-12.724-8.994-12.724A26.887,26.887,0,0,1,2114.358,1386.82Z" transform="translate(-2076.246 -1335.034)" fill="#eea987"/>
          <path id="Path_205" data-name="Path 205" d="M2074.985,1382.267a17.6,17.6,0,0,1-.322,2.142c-.173.575-4.141,15.24-4.543,20.876a111.062,111.062,0,0,1-1.61,11.62,24.936,24.936,0,0,0,.518,6.265c.345,1.035-1.725,25.476-1.9,26.051s1.38.748,2.473.575,6.614-17.943,6.269-20.933-.69-9.367.288-11.958,9.777-21.339,9.834-22.49S2089.8,1373.454,2074.985,1382.267Z" transform="translate(-2050.871 -1330.481)" fill="#eea987"/>
          <path id="Path_206" data-name="Path 206" d="M2199.679,1779.875a12.3,12.3,0,0,1-.593,2.527c-.309.541-1.16,3.3-1.547,3.816s-1.238,4.383,0,4.848,4.151,1.238,5.131-.309a6.362,6.362,0,0,0,.954-4.28c-.155-1.186-1.331-6.63-1.315-7.168S2199.679,1779.875,2199.679,1779.875Z" transform="translate(-2157.889 -1659.633)" fill="#eea987"/>
          <path id="Path_207" data-name="Path 207" d="M2196.267,1813.3s-.133,3.005,2.136,3.005,3.274-2.735,3.274-2.735.773,1.342,0,4.2-4,2.269-4.718,2.166S2192.816,1818.93,2196.267,1813.3Z" transform="translate(-2156.124 -1687.784)" fill="#eb4747"/>
          <path id="Path_208" data-name="Path 208" d="M2021.274,1767.846s-1.6,2.869-2.556,3.45c-1.187.724-3.491,3.048-4.3,3.156s-3.7.621-3.139,2.253c.458,1.338,7.357,1.146,8.135.476s3.1-3.078,4.044-3.024.59,3.472.59,3.472h1.019s.356-3.326.4-3.9c.127-1.692-1.08-2.937-1.133-3.9s-.109-1.686-.109-1.686Z" transform="translate(-2004.77 -1650.303)" fill="#eb4747"/>
          <path id="Path_209" data-name="Path 209" d="M2030.832,1773.548a5.5,5.5,0,0,0,4.024-.22c1.751-1.006,5.11-2.534,6.3-2.544,0,0-.648-1.981-.661-2.2s-.084-1.265-.084-1.265l-2.937-.471a25.413,25.413,0,0,1-2.744,3.455A47.606,47.606,0,0,0,2030.832,1773.548Z" transform="translate(-2020.95 -1649.477)" fill="#eea987"/>
          <path id="Path_210" data-name="Path 210" d="M2079.557,1389.561s-.819,3.407-1.121,4.4-2.24,16.382-2.717,26.008a75.408,75.408,0,0,0,27.561,3.666s.388-17.684-1.079-22.687-4.121-9.684-6.125-11.128C2094.293,1388.535,2079.557,1389.561,2079.557,1389.561Z" transform="translate(-2057.964 -1338.034)" fill="#33373b"/>
          <g id="Group_117" data-name="Group 117" transform="translate(46.704 57.997)">
            <g id="Group_116" data-name="Group 116">
              <path id="Path_211" data-name="Path 211" d="M2242.188,1430.445a23.542,23.542,0,0,1-.672,2.821c-.435,1.384-.836,1.826-.661,2.619.132.6.809,1.048.98.856s.254-2.52,1.219-2.51-.288,2.883.286,2.673,2.785-1.422,2.646-2.6-1.023-2.022-.967-3.775a3.769,3.769,0,0,0-.444-2.255Z" transform="translate(-2240.813 -1428.279)" fill="#eea987"/>
            </g>
          </g>
          <g id="Group_119" data-name="Group 119" transform="translate(1.933 17.993)">
            <g id="Group_118" data-name="Group 118">
              <path id="Path_212" data-name="Path 212" d="M1985.5,1201.789s1.346,1.75,2.176,1.935,1.733-1.792,1.733-1.792l-.49-1.779Z" transform="translate(-1985.499 -1200.153)" fill="#eea886"/>
            </g>
          </g>
          <g id="Group_121" data-name="Group 121" transform="translate(0 12.428)">
            <g id="Group_120" data-name="Group 120">
              <path id="Path_213" data-name="Path 213" d="M1979.733,1175.035s.645-2.018.734-2.33a3.835,3.835,0,0,0-.8-2.095,18.564,18.564,0,0,0-1.5-2.02c-.127-.127-.2-.269-.618-.08a1.748,1.748,0,0,0-.671.581,1.065,1.065,0,0,0-.9.5.927.927,0,0,0-.807.642s-.577.033-.695.5a7.035,7.035,0,0,1,.289,1.211,14.788,14.788,0,0,0,1.644,3.679S1977.794,1176.812,1979.733,1175.035Z" transform="translate(-1974.476 -1168.419)" fill="#eea886"/>
            </g>
          </g>
          <g id="Group_123" data-name="Group 123" transform="translate(0.895 16.114)">
            <g id="Group_122" data-name="Group 122">
              <path id="Path_214" data-name="Path 214" d="M1982.464,1189.746a5.213,5.213,0,0,0-.775,1.131c-.081.325-2.109-.884-2.109-.884S1981.461,1188.928,1982.464,1189.746Z" transform="translate(-1979.58 -1189.437)" fill="#cf8c6c"/>
            </g>
          </g>
          <g id="Group_125" data-name="Group 125" transform="translate(0 12.55)">
            <g id="Group_124" data-name="Group 124">
              <path id="Path_215" data-name="Path 215" d="M1978.274,1169.366s1.122,2.377.746,2.583a.672.672,0,0,1-.639.052l-.059,1.192a.686.686,0,0,1-1.178.015s-.378.763-.962-.043c0,0-.474.392-.81.067a8.8,8.8,0,0,1-.9-1.931s.034-.392.695-.5a.912.912,0,0,1,.807-.643,1.378,1.378,0,0,1,1.047-.654,1.037,1.037,0,0,1,1.143-.343A1.281,1.281,0,0,1,1978.274,1169.366Z" transform="translate(-1974.476 -1169.111)" fill="#db9c7c"/>
            </g>
          </g>
          <g id="Group_127" data-name="Group 127" transform="translate(2.877 15.054)">
            <g id="Group_126" data-name="Group 126">
              <path id="Path_216" data-name="Path 216" d="M1993.976,1184.974a8.963,8.963,0,0,0-2.391-1.522c-.233-.074-.472-.1-.629.085s-.082.655.481,1.2a6.623,6.623,0,0,1,1.04,1.514S1993.222,1186.648,1993.976,1184.974Z" transform="translate(-1990.885 -1183.395)" fill="#eea886"/>
            </g>
          </g>
          <g id="Group_128" data-name="Group 128" transform="translate(2.549 12.431)">
            <path id="Path_217" data-name="Path 217" d="M1989.009,1168.945a22.074,22.074,0,0,1,1.373,2.761c-.016.29.91-.2.906-.453a20.814,20.814,0,0,0-1.136-2.651A.712.712,0,0,0,1989.009,1168.945Z" transform="translate(-1989.009 -1168.433)" fill="#eea886"/>
          </g>
          <g id="Group_129" data-name="Group 129" transform="translate(1.203 9.093)">
            <path id="Path_218" data-name="Path 218" d="M1984.11,1153.382s-2.213-4.13-2.54-3.979c-.473.218-.347,1.362,1.52,4.445C1984.906,1156.845,1984.11,1153.382,1984.11,1153.382Z" transform="translate(-1981.337 -1149.399)" fill="#eea886"/>
          </g>
          <path id="Path_219" data-name="Path 219" d="M2079.242,1230.028l-4.556-6.045s8.145-6.308,10.657-2.3C2085.344,1221.687,2085.523,1228.295,2079.242,1230.028Z" transform="translate(-2057.113 -1198.817)" fill="#9a45d2"/>
          <path id="Path_220" data-name="Path 220" d="M2085.033,1225.02c.129,2.027,1.165,3.709,1.337,4.443s0,2.415.216,4.1a103.8,103.8,0,0,1,.647,11.991c-.216,2.286,15.69,1.253,16.9.563,0,0-2.68-4.79-2.751-6.774-.025-.682-.431-2.8.69-4.356.592-.82,1.69-3.428,2.786-5.335h0c.425-.74.87-1.478,1.18-2.026h0a7.681,7.681,0,0,0,.631-1.566s.708-8.8-1.233-9.791a9.889,9.889,0,0,0-4.874-1.251,13.787,13.787,0,0,1-3.148-.474l-4.442.474a25.677,25.677,0,0,1-3.968,1.078c-1.121.086-2.545,2.5-2.415,4.054S2084.9,1222.993,2085.033,1225.02Z" transform="translate(-2065.64 -1194.023)" fill="#9a45d2"/>
          <g id="Group_131" data-name="Group 131" transform="translate(47.638 63.838)">
            <g id="Group_130" data-name="Group 130">
              <path id="Path_221" data-name="Path 221" d="M2247.348,1461.6s-1.285.328-1.208,4.674l1.455-.243a14.968,14.968,0,0,1,.408-3.711S2247.928,1461.473,2247.348,1461.6Z" transform="translate(-2246.137 -1461.589)" fill="#1d3b54"/>
            </g>
          </g>
          <g id="Group_133" data-name="Group 133" transform="translate(43.516 66.292)">
            <g id="Group_132" data-name="Group 132">
              <path id="Path_222" data-name="Path 222" d="M2222.63,1478.8l11.329-3.214-.034,13.952-11.274,6.756Z" transform="translate(-2222.63 -1475.584)" fill="#1d3b54"/>
            </g>
          </g>
          <g id="Group_134" data-name="Group 134" transform="translate(43.537 66.292)">
            <path id="Path_223" data-name="Path 223" d="M2222.75,1496.293l1.419.262,10.966-6.819-.136-14.087-.941-.064Z" transform="translate(-2222.75 -1475.584)" fill="#1d3b54"/>
          </g>
          <path id="Path_224" data-name="Path 224" d="M2184.626,1219.775a6.055,6.055,0,0,1,5.124,3.093c1.6,3.106,1.769,6.383,2.156,7.548s1.4,8.016,1.791,9.008a77.907,77.907,0,0,1,3.255,11.522,75.882,75.882,0,0,1,.679,7.646l-2.831-.089s-2.809-10.327-3.777-12.785c-.827-2.1-1.145-5.771-1.619-7.064s-3.407-10.4-4.011-11.042S2181.616,1220.349,2184.626,1219.775Z" transform="translate(-2146.721 -1198.341)" fill="#eea886"/>
          <path id="Path_225" data-name="Path 225" d="M2182.733,1232.334l7.189-2.264s-2.2-10.6-8.344-10.321C2176.65,1219.977,2182.733,1232.334,2182.733,1232.334Z" transform="translate(-2143.672 -1198.315)" fill="#9a45d2"/>
          <path id="Path_226" data-name="Path 226" d="M2106.784,1102.095a6.769,6.769,0,0,0-7.772,5.355,16.544,16.544,0,0,0,.213,2.59c.217,1.154-1.157,4.325-.915,4.517a7.263,7.263,0,0,0,1.3.522s.747,3.722,2.011,3.835a10.514,10.514,0,0,0,8.9-4.535C2113.278,1110.171,2114.755,1103.4,2106.784,1102.095Z" transform="translate(-2076.571 -1101.233)" fill="#eea886"/>
          <path id="Path_227" data-name="Path 227" d="M2127.557,1174.358s.1.521.188,1.287c.046.392.091.848.12,1.33a8.906,8.906,0,0,1-.418,3.863s2.474,1.533,5.125-2.153c0,0-.259-4.6,1.264-7.031S2127.557,1174.358,2127.557,1174.358Z" transform="translate(-2100.622 -1158.12)" fill="#eea886"/>
          <path id="Path_228" data-name="Path 228" d="M2102.449,1103.78a17.963,17.963,0,0,0,6.119,3.375c3.147.809,4.813,4.345,4.813,4.345s5.569-5.554,2.208-10.944S2102.454,1097.569,2102.449,1103.78Z" transform="translate(-2080.008 -1097.564)" fill="#434343"/>
          <path id="Path_229" data-name="Path 229" d="M2129.147,1188.728c.047.392.091.847.12,1.33a13.9,13.9,0,0,0,4.306-3.193A15.807,15.807,0,0,1,2129.147,1188.728Z" transform="translate(-2102.024 -1171.202)" fill="#a77860"/>
          <path id="Path_230" data-name="Path 230" d="M2140.643,1150.082s3.219,8.656,2.833,10.74a11.341,11.341,0,0,1,4.738.635S2146.748,1146.012,2140.643,1150.082Z" transform="translate(-2111.504 -1140.306)" fill="#434343"/>
          <path id="Path_231" data-name="Path 231" d="M2129.945,1214.105s-1.061,6.492-4.985,5.759-.948-5.491-.948-5.491S2125.544,1213,2129.945,1214.105Z" transform="translate(-2096.897 -1193.31)" fill="#eea886"/>
        </g>
      </g>
    </g>
  </g>
</svg>
