<svg xmlns="http://www.w3.org/2000/svg" xmlns:xlink="http://www.w3.org/1999/xlink" width="55.024" height="55" viewBox="0 0 55.024 55">
  <defs>
    <linearGradient id="linear-gradient" x2="1" y2="1" gradientUnits="objectBoundingBox">
      <stop offset="0" stop-color="#9a45d2"/>
      <stop offset="1" stop-color="#6747d4"/>
    </linearGradient>
    <filter id="Path_158" x="0" y="5.253" width="44.174" height="44.174" filterUnits="userSpaceOnUse">
      <feOffset dy="7" input="SourceAlpha"/>
      <feGaussianBlur stdDeviation="6" result="blur"/>
      <feFlood flood-color="#c2afff" flood-opacity="0.78"/>
      <feComposite operator="in" in2="blur"/>
      <feComposite in="SourceGraphic"/>
    </filter>
    <filter id="Path_159" x="0" y="16.771" width="55.022" height="38.229" filterUnits="userSpaceOnUse">
      <feOffset dy="7" input="SourceAlpha"/>
      <feGaussianBlur stdDeviation="6" result="blur-2"/>
      <feFlood flood-color="#c2afff" flood-opacity="0.702"/>
      <feComposite operator="in" in2="blur-2"/>
      <feComposite in="SourceGraphic"/>
    </filter>
    <filter id="Path_160" x="1.576" y="0" width="53.448" height="52.771" filterUnits="userSpaceOnUse">
      <feOffset dy="7" input="SourceAlpha"/>
      <feGaussianBlur stdDeviation="6" result="blur-3"/>
      <feFlood flood-color="#c2afff" flood-opacity="0.722"/>
      <feComposite operator="in" in2="blur-3"/>
      <feComposite in="SourceGraphic"/>
    </filter>
  </defs>
  <g id="leave_status" transform="translate(18 10.673)">
    <g id="Group_57" data-name="Group 57" transform="translate(0 5.58)">
      <g id="Group_56" data-name="Group 56">
        <g transform="matrix(1, 0, 0, 1, -18, -16.25)" filter="url(#Path_158)">
          <path id="Path_158-2" data-name="Path 158" d="M6.8,146.521l1.379-.726L6.8,145.07l.831-1.318-1.557.061.061-1.557-1.318.831-.726-1.379-.726,1.379-1.318-.831.061,1.557-1.557-.061.831,1.318L0,145.8l1.379.726-.831,1.318,1.557-.061-.061,1.557,1.318-.831.726,1.379.726-1.379,1.318.831-.061-1.557,1.557.061Zm-2.708,1.318A2.043,2.043,0,1,1,6.13,145.8,2.043,2.043,0,0,1,4.087,147.839Z" transform="translate(18 -125.46)" fill="url(#linear-gradient)"/>
        </g>
      </g>
    </g>
    <g id="Group_59" data-name="Group 59" transform="translate(0 17.098)">
      <g id="Group_58" data-name="Group 58">
        <g transform="matrix(1, 0, 0, 1, -18, -27.77)" filter="url(#Path_159)">
          <path id="Path_159-2" data-name="Path 159" d="M17.117,452.339a1.982,1.982,0,0,1-2.529,0,3.087,3.087,0,0,0-3.812,0,1.982,1.982,0,0,1-2.529,0,2.978,2.978,0,0,0-1.906-.659,2.978,2.978,0,0,0-1.906.659,1.876,1.876,0,0,1-1.265.456,1.875,1.875,0,0,1-1.265-.456A2.978,2.978,0,0,0,0,451.68v1.115a1.876,1.876,0,0,1,1.265.456,2.978,2.978,0,0,0,1.906.659,2.978,2.978,0,0,0,1.906-.659,1.876,1.876,0,0,1,1.265-.456,1.876,1.876,0,0,1,1.265.456,3.086,3.086,0,0,0,3.811,0,1.982,1.982,0,0,1,2.529,0,3.086,3.086,0,0,0,3.812,0,1.876,1.876,0,0,1,1.265-.456V451.68A2.978,2.978,0,0,0,17.117,452.339Z" transform="translate(18 -423.91)" fill="url(#linear-gradient)"/>
        </g>
      </g>
    </g>
    <g id="Group_61" data-name="Group 61" transform="translate(1.577 0.327)">
      <g id="Group_60" data-name="Group 60" transform="translate(0 0)">
        <g transform="matrix(1, 0, 0, 1, -19.58, -11)" filter="url(#Path_160)">
          <path id="Path_160-2" data-name="Path 160" d="M59.3,4.386A6.084,6.084,0,0,0,56.355,1.43l.263-.722L55.57.327l-.263.722a6.139,6.139,0,0,0-7.325,3.83l-.225.618.647.12A9.591,9.591,0,0,1,51.374,6.7l.13.073h.206a5.788,5.788,0,0,1,1.448.184l-2.6,7.135-.2,0a15.337,15.337,0,0,0-7.935,2.2,4.892,4.892,0,0,1,.97.56c.326.229.36.253.624.253s.3-.024.623-.253a4.2,4.2,0,0,1,5.094,0c.326.229.36.253.624.253s.3-.024.623-.253a4.2,4.2,0,0,1,5.094,0c.326.229.36.253.624.253s.3-.024.624-.253a4.893,4.893,0,0,1,.97-.56,15.307,15.307,0,0,0-6.573-2.136l2.479-6.812a5.79,5.79,0,0,1,1.27.826l.114.1.147.027a9.592,9.592,0,0,1,2.97,1.081l.573.324.225-.618A6.09,6.09,0,0,0,59.3,4.386Z" transform="translate(-22.85 10.67)" fill="url(#linear-gradient)"/>
        </g>
      </g>
    </g>
  </g>
</svg>
