<svg xmlns="http://www.w3.org/2000/svg" xmlns:xlink="http://www.w3.org/1999/xlink" width="114" height="114" viewBox="0 0 114 114">
  <defs>
    <clipPath id="clip-path">
      <circle id="Ellipse_1781" data-name="Ellipse 1781" cx="57" cy="57" r="57" transform="translate(626 185)" fill="#fff"/>
    </clipPath>
  </defs>
  <g id="tick" transform="translate(-626 -185)">
    <g id="Mask_Group_7" data-name="Mask Group 7" clip-path="url(#clip-path)">
      <circle id="Ellipse_1780" data-name="Ellipse 1780" cx="57" cy="57" r="57" transform="translate(636 191)" fill="#f7f5ff"/>
    </g>
    <g id="Ellipse_1779" data-name="Ellipse 1779" transform="translate(626 185)" fill="none" stroke="#7151dc" stroke-width="2">
      <circle cx="57" cy="57" r="57" stroke="none"/>
      <circle cx="57" cy="57" r="56" fill="none"/>
    </g>
    <path id="Path_8113" data-name="Path 8113" d="M20.535,44.289a2.372,2.372,0,0,1-1.672-.69L4.691,29.428a2.362,2.362,0,1,1,3.34-3.34l12.5,12.5,31.4-31.4a2.362,2.362,0,1,1,3.34,3.34L22.2,43.6a2.353,2.353,0,0,1-1.672.69Z" transform="translate(653 217.117)" fill="#7151dc"/>
  </g>
</svg>
