<svg xmlns="http://www.w3.org/2000/svg" width="53.593" height="41.431" viewBox="0 0 53.593 41.431">
    <defs>
        <style>
            .cls-1{fill:#2c5ba7}
        </style>
    </defs>
    <g id="upload-to-cloud">
        <path id="Path_7394" d="M41.358 47.02a14.614 14.614 0 0 0-29.164.005 13.947 13.947 0 0 0 1.761 27.783h21.222a1.093 1.093 0 0 0 0-2.186H13.955a11.76 11.76 0 0 1-.639-23.5 1.093 1.093 0 0 0 1.034-1.092v-.065a12.427 12.427 0 0 1 24.855 0v.06a1.093 1.093 0 0 0 1.038 1.092 11.758 11.758 0 0 1 6.819 20.872 1.093 1.093 0 1 0 1.38 1.7 13.944 13.944 0 0 0-7.08-24.664z" class="cls-1" data-name="Path 7394" transform="translate(0 -33.378)"/>
        <path id="Path_7395" d="M140.966 136.171v13.94a1.093 1.093 0 1 0 2.186 0v-13.94a1.093 1.093 0 0 0-2.186 0z" class="cls-1" data-name="Path 7395" transform="translate(-115.283 -116.549)"/>
        <path id="Path_7396" d="M120.247 114.326a1.093 1.093 0 0 0 .773-1.866l-6.252-6.252a1.093 1.093 0 0 0-1.546 0l-6.252 6.252a1.093 1.093 0 0 0 1.546 1.546l5.484-5.479 5.479 5.479a1.091 1.091 0 0 0 .768.32z" class="cls-1" data-name="Path 7396" transform="translate(-87.219 -92.677)"/>
    </g>
</svg>
