<svg xmlns="http://www.w3.org/2000/svg" width="11.119" height="11.287" viewBox="0 0 11.119 11.287"><defs><style>.a{fill:#6c44e1;stroke:#6c44e1;stroke-width:0.5px;}</style></defs><g transform="translate(0.25 0.25)"><g transform="matrix(-0.999, 0.052, -0.052, -0.999, 9.673, 4.58)"><path class="a" d="M317.052,0h-2.911a.384.384,0,1,0,0,.767h2.527V3.295a.384.384,0,1,0,.767,0V.384A.384.384,0,0,0,317.052,0Z" transform="translate(-313.757)"/></g><g transform="translate(4.678 9.787) rotate(180)"><path class="a" d="M3.295,316.668H.768v-2.527a.384.384,0,1,0-.768,0v2.911a.384.384,0,0,0,.384.384H3.295a.384.384,0,1,0,0-.767Z" transform="translate(0 -313.757)"/></g><g transform="translate(6.416 0)"><path class="a" d="M291.663.113a.384.384,0,0,0-.543,0l-3.4,3.4a.384.384,0,0,0,.543.543l3.4-3.4A.384.384,0,0,0,291.663.113Z" transform="translate(-287.612 0)"/></g><g transform="translate(0 6.623)"><path class="a" d="M4.051,287.724a.384.384,0,0,0-.543,0l-3.4,3.4a.384.384,0,1,0,.543.543l3.4-3.4A.384.384,0,0,0,4.051,287.724Z" transform="translate(0 -287.611)"/></g></g></svg>