<svg xmlns="http://www.w3.org/2000/svg" xmlns:xlink="http://www.w3.org/1999/xlink" width="24.944" height="25.524" viewBox="0 0 24.944 25.524"><defs><style>.a{clip-path:url(#a);}.b{fill:#fbbc05;}.c{fill:#ea4335;}.d{fill:#34a853;}.e{fill:#4285f4;}</style><clipPath id="a"><path d="M26.654,12.442H14.762v4.931h6.845C20.969,20.505,18.3,22.3,14.762,22.3a7.541,7.541,0,0,1,0-15.082,7.378,7.378,0,0,1,4.7,1.682l3.713-3.713a12.754,12.754,0,1,0-8.411,22.334c6.381,0,12.182-4.641,12.182-12.762A10.587,10.587,0,0,0,26.654,12.442Z" transform="translate(-2 -2)"/></clipPath></defs><g transform="translate(-2 -2)"><g class="a" transform="translate(2 2)"><path class="b" d="M0,26.082V11l9.862,7.541Z" transform="translate(-1.16 -5.779)"/></g><g class="a" transform="translate(2 2)"><path class="c" d="M0,6.381l9.862,7.541,4.061-3.539L27.845,8.121V0H0Z" transform="translate(-1.16 -1.16)"/></g><g class="a" transform="translate(2 2)"><path class="d" d="M0,21.464,17.4,8.121l4.583.58L27.845,0V27.845H0Z" transform="translate(-1.16 -1.16)"/></g><g class="a" transform="translate(2 2)"><path class="e" d="M33.3,32.464,15.32,18.541,13,16.8,33.3,11Z" transform="translate(-6.619 -5.779)"/></g></g></svg>