<svg xmlns="http://www.w3.org/2000/svg" xmlns:xlink="http://www.w3.org/1999/xlink" width="124" height="42" viewBox="0 0 124 42">
  <defs>
    <linearGradient id="linear-gradient" x1="0.5" x2="0.5" y2="1" gradientUnits="objectBoundingBox">
      <stop offset="0" stop-color="#fff"/>
      <stop offset="1" stop-color="gray"/>
    </linearGradient>
    <linearGradient id="linear-gradient-2" x2="1" y2="1" gradientUnits="objectBoundingBox">
      <stop offset="0" stop-color="#c445d2"/>
      <stop offset="1" stop-color="#6747d4"/>
    </linearGradient>
    <clipPath id="clip-path">
      <path id="Path_135" data-name="Path 135" d="M793.78,147.989s13.227-7.254,24.406-9.387a97.816,97.816,0,0,1,20.481-1.707L837.3,114.2l-45.74,1.877Z" transform="translate(-791.561 -114.196)" fill="url(#linear-gradient)"/>
    </clipPath>
    <clipPath id="clip-logo">
      <rect width="124" height="42"/>
    </clipPath>
  </defs>
  <g id="logo" clip-path="url(#clip-logo)">
    <g id="Group_160" data-name="Group 160" transform="translate(-715 -52)">
      <path id="Path_122" data-name="Path 122" d="M1551.014,262.983H1529.6a8.486,8.486,0,0,1-8.486-8.486V232.663a8.486,8.486,0,0,1,8.486-8.487h22.87a8.487,8.487,0,0,1,8.486,8.487v20.381Z" transform="translate(-805.469 -170.163)" fill="url(#linear-gradient-2)"/>
      <circle id="Ellipse_3" data-name="Ellipse 3" cx="1.65" cy="1.65" r="1.65" transform="translate(723.88 57.495)" fill="#fff"/>
      <circle id="Ellipse_4" data-name="Ellipse 4" cx="1.65" cy="1.65" r="1.65" transform="translate(743.524 57.495)" fill="#fff"/>
      <path id="Path_123" data-name="Path 123" d="M1756.746,474.514l-1.341-10.343,11.278.564Z" transform="translate(-1011.12 -381.744)" fill="#b98eff"/>
      <path id="Path_124" data-name="Path 124" d="M1692.781,464.171l-8.723,10.392h9.99Z" transform="translate(-948.496 -381.744)" opacity="0.15"/>
      <path id="Path_309" data-name="Path 309" d="M13.966-12.712a1.376,1.376,0,0,0,.426-.9A1.641,1.641,0,0,0,12.928-15a1.25,1.25,0,0,0-.852.426,5.023,5.023,0,0,1-3.46,1.251c-1.224,0-2.5-.16-3.141-1.544-.559-1.2-.559-2.9-.559-5.163,0-2.236,0-3.939.559-5.137.639-1.384,2-1.57,3.141-1.57A4.618,4.618,0,0,1,11.757-25.7a1.325,1.325,0,0,0,.8.293,1.556,1.556,0,0,0,1.357-1.384c0-.559-.373-.878-.8-1.224A6.966,6.966,0,0,0,8.483-29.4a6.083,6.083,0,0,0-5.19,2.369c-1.038,1.411-1.278,3.779-1.278,7s.213,5.616,1.278,7a6.2,6.2,0,0,0,5.19,2.369C11.784-10.663,13.354-12.02,13.966-12.712ZM21.445-28.2a1.178,1.178,0,0,0-1.331-1.2,1.178,1.178,0,0,0-1.331,1.2v16.342a1.178,1.178,0,0,0,1.331,1.2,1.178,1.178,0,0,0,1.331-1.2v-6.813c0-2.608,1.411-3.061,2.662-3.061,2.608,0,2.662,1.836,2.662,3.779v6.095a1.178,1.178,0,0,0,1.331,1.2,1.178,1.178,0,0,0,1.331-1.2v-7.106c0-2.874-1.3-5.217-4.5-5.217a4.672,4.672,0,0,0-3.167,1.038.337.337,0,0,1-.16.053c-.106,0-.16-.027-.16-.16Zm18.6,15.091c-2.528,0-2.608-1.7-2.608-3.566v-6.308a1.178,1.178,0,0,0-1.331-1.2,1.178,1.178,0,0,0-1.331,1.2v7.106c0,2.874,1.251,5.217,4.445,5.217A4.684,4.684,0,0,0,42.364-11.7a.337.337,0,0,1,.16-.053c.106,0,.16.106.186.186a1.212,1.212,0,0,0,1.3.9,1.178,1.178,0,0,0,1.331-1.2V-22.986a1.178,1.178,0,0,0-1.331-1.2,1.178,1.178,0,0,0-1.331,1.2v6.92C42.684-13.591,41.3-13.112,40.049-13.112ZM56.87-11.967a1.141,1.141,0,0,0-1.144-1.224,1.347,1.347,0,0,1-1.517-1.464v-6.734c0-.16.053-.24.24-.24H55.7a1.059,1.059,0,0,0,1.171-1.2,1.059,1.059,0,0,0-1.171-1.2H54.448c-.186,0-.24-.053-.24-.24v-2.608a1.178,1.178,0,0,0-1.331-1.2,1.178,1.178,0,0,0-1.331,1.2v2.608c0,.186-.08.24-.24.24h-.958a1.078,1.078,0,0,0-1.2,1.2,1.078,1.078,0,0,0,1.2,1.2h.958a.212.212,0,0,1,.24.24v6.627c0,2.5,1.011,4.1,3.7,4.1C56.524-10.663,56.87-11.382,56.87-11.967Zm10.38,0a1.141,1.141,0,0,0-1.144-1.224,1.347,1.347,0,0,1-1.517-1.464v-6.734c0-.16.053-.24.24-.24h1.251a1.059,1.059,0,0,0,1.171-1.2,1.059,1.059,0,0,0-1.171-1.2H64.828c-.186,0-.24-.053-.24-.24v-2.608a1.178,1.178,0,0,0-1.331-1.2,1.178,1.178,0,0,0-1.331,1.2v2.608c0,.186-.08.24-.24.24h-.958a1.078,1.078,0,0,0-1.2,1.2,1.078,1.078,0,0,0,1.2,1.2h.958a.212.212,0,0,1,.24.24v6.627c0,2.5,1.011,4.1,3.7,4.1C66.9-10.663,67.25-11.382,67.25-11.967Z" transform="translate(763.064 91.962)" fill="#404040"/>
      <path id="Path_310" data-name="Path 310" d="M-4.774-22.986a1.178,1.178,0,0,0-1.331-1.2,1.178,1.178,0,0,0-1.331,1.2v11.125a1.178,1.178,0,0,0,1.331,1.2,1.178,1.178,0,0,0,1.331-1.2Zm.293-4.791A1.566,1.566,0,0,0-6.1-29.4a1.551,1.551,0,0,0-1.624,1.624A1.566,1.566,0,0,0-6.1-26.153,1.581,1.581,0,0,0-4.481-27.776Z" transform="translate(842.042 91.962)" fill="#7151dc"/>
      <g id="Mask_Group_1" data-name="Mask Group 1" transform="translate(711.561 45.196)" opacity="0.08" clip-path="url(#clip-path)">
        <path id="Path_136" data-name="Path 136" d="M1551.014,262.983H1529.6a8.486,8.486,0,0,1-8.486-8.486V232.663a8.486,8.486,0,0,1,8.486-8.487h22.87a8.487,8.487,0,0,1,8.486,8.487v20.381Z" transform="translate(-1517.03 -215.359)" fill="#fff"/>
      </g>
      <path id="Union_2" data-name="Union 2" d="M18.038,14.162a1.3,1.3,0,0,1-1.3-1.3V10.312a1.3,1.3,0,0,1,1.3-1.3h2.55a1.3,1.3,0,0,1,1.3,1.3v2.551a1.3,1.3,0,0,1-1.3,1.3Zm-8.369,0a1.3,1.3,0,0,1-1.3-1.3V10.312a1.3,1.3,0,0,1,1.3-1.3h2.55a1.3,1.3,0,0,1,1.3,1.3v2.551a1.3,1.3,0,0,1-1.3,1.3Zm-8.369,0a1.3,1.3,0,0,1-1.3-1.3V10.312a1.3,1.3,0,0,1,1.3-1.3H3.85a1.3,1.3,0,0,1,1.3,1.3v2.551a1.3,1.3,0,0,1-1.3,1.3ZM18.038,5.15a1.3,1.3,0,0,1-1.3-1.3V1.3a1.3,1.3,0,0,1,1.3-1.3h2.55a1.3,1.3,0,0,1,1.3,1.3V3.85a1.3,1.3,0,0,1-1.3,1.3Zm-8.369,0a1.3,1.3,0,0,1-1.3-1.3V1.3A1.3,1.3,0,0,1,9.669,0h2.55a1.3,1.3,0,0,1,1.3,1.3V3.85a1.3,1.3,0,0,1-1.3,1.3ZM1.3,5.15A1.3,1.3,0,0,1,0,3.85V1.3A1.3,1.3,0,0,1,1.3,0H3.85a1.3,1.3,0,0,1,1.3,1.3V3.85a1.3,1.3,0,0,1-1.3,1.3Z" transform="translate(725.363 67.106)" fill="#fff"/>
      <rect id="Rectangle_53" data-name="Rectangle 53" width="2.535" height="6.949" rx="1.267" transform="translate(724.513 52.198)" fill="#404040"/>
      <rect id="Rectangle_54" data-name="Rectangle 54" width="2.535" height="6.949" rx="1.267" transform="translate(744.158 52.198)" fill="#404040"/>
    </g>
  </g>
</svg>
