<svg xmlns="http://www.w3.org/2000/svg" xmlns:xlink="http://www.w3.org/1999/xlink" width="59.744" height="59.745" viewBox="0 0 59.744 59.745">
  <defs>
    <linearGradient id="linear-gradient" x2="1" y2="1" gradientUnits="objectBoundingBox">
      <stop offset="0" stop-color="#9a45d2"/>
      <stop offset="1" stop-color="#6747d4"/>
    </linearGradient>
    <filter id="Union_1" x="0" y="0" width="59.744" height="59.745" filterUnits="userSpaceOnUse">
      <feOffset dy="4" input="SourceAlpha"/>
      <feGaussianBlur stdDeviation="6" result="blur"/>
      <feFlood flood-color="#c2afff" flood-opacity="0.631"/>
      <feComposite operator="in" in2="blur"/>
      <feComposite in="SourceGraphic"/>
    </filter>
  </defs>
  <g id="quick_apply" transform="translate(17.999 13.999)">
    <g transform="matrix(1, 0, 0, 1, -18, -14)" filter="url(#Union_1)">
      <path id="Union_1-2" data-name="Union 1" d="M11.775,23.67a.7.7,0,0,1-.375-.724,8.539,8.539,0,0,0,.2-2.629,39.657,39.657,0,0,0,4.4-2.858c.346.624.077,2.589-1.446,4.113L12.579,23.54a.7.7,0,0,1-.8.13ZM2.967,20.785a.694.694,0,0,1-.134-.795,18.474,18.474,0,0,1,3.676-4.727c.664-.664,2.078-1.115,2.58-.612h0c.477.478.117,1.849-.614,2.579A18.623,18.623,0,0,1,3.763,20.92a.695.695,0,0,1-.8-.134Zm4.818-.578-.23-.23c.579-.492,1.21-1.066,1.905-1.762.05-.05.073-.1.119-.149l1.146,1.146c-1.2.67-1.769.937-2.129,1.122a.7.7,0,0,1-.81-.127Zm2.562-3.34a2.925,2.925,0,0,0-.274-3.2,2.928,2.928,0,0,0-3.2-.275L5.3,11.823c3.16-5.256,7.159-9,11.335-10.711a7.31,7.31,0,0,0,2.092,3.9A7.277,7.277,0,0,0,22.723,7.1c-2,5.108-6.71,8.948-10.754,11.385ZM12.827,5.994a3.484,3.484,0,1,0,2.46-1.017A3.484,3.484,0,0,0,12.827,5.994ZM3.6,16.019a.7.7,0,0,1-.13-.8h0c.106-.21.478-1,1.114-2.147l1.094,1.1c-.049.045-.1.068-.149.118-.695.695-1.267,1.327-1.759,1.909Zm-3.5-3.95a.7.7,0,0,1,.11-.84L2.172,9.262C3.845,7.589,5.794,7.377,6.385,7.756A37.2,37.2,0,0,0,3.5,12.149a5.72,5.72,0,0,0-2.629.244.7.7,0,0,1-.782-.324ZM13.811,9.93a2.089,2.089,0,1,1,1.476.61A2.09,2.09,0,0,1,13.811,9.93Zm5.9-5.9a5.837,5.837,0,0,1-1.73-3.4A13.744,13.744,0,0,1,23.062.037.694.694,0,0,1,23.7.679a14.367,14.367,0,0,1-.526,5.075A5.818,5.818,0,0,1,19.714,4.027Z" transform="translate(18 14)" fill="url(#linear-gradient)"/>
    </g>
  </g>
</svg>
