<svg xmlns="http://www.w3.org/2000/svg" xmlns:xlink="http://www.w3.org/1999/xlink" width="768" height="907" viewBox="0 0 768 907"><defs><style>.a{fill:#fff;stroke:#707070;}.b,.v{fill:none;}.c{clip-path:url(#a);}.d{fill:#bcf5f7;}.e{fill:#abf4f4;}.f{fill:#eff;}.g{fill:#32be8e;}.h{fill:#96e882;}.i{fill:#aef6c9;}.j{fill:#008c97;}.k{fill:#86db6e;}.l{fill:#00c3c3;}.m{opacity:0.3;fill:url(#b);}.n{opacity:0.32;}.n,.o{fill:url(#c);}.ah,.o{opacity:0.2;}.p{fill:url(#e);}.ad,.ai,.q,.y{opacity:0.37;}.q{fill:url(#f);}.r{fill:#17193a;}.s{fill:#94d3d3;}.t{fill:#4f2411;}.u{fill:#96eaea;}.v{stroke:#fff;stroke-miterlimit:10;}.w{fill:#6a2f32;}.x{fill:url(#g);}.y{fill:url(#h);}.z{fill:#ffc340;}.aa{opacity:0.6;fill:url(#i);}.ab{fill:url(#j);}.ac{fill:url(#k);}.ad{fill:url(#l);}.ae{fill:#ffb63c;}.af{fill:#f1ba9b;}.ag{fill:#1e2049;}.ah{fill:url(#n);}.ai{fill:url(#o);}.aj{fill:#ffe5b6;}.ak{fill:#252655;}.al{fill:#354c43;}.am{fill:url(#p);}.an{opacity:0.31;fill:url(#q);}.ao{fill:#395248;}.ap{fill:url(#r);}.aq{fill:url(#s);}.ar{fill:url(#t);}.as{fill:#385e4d;}.at{clip-path:url(#u);}.au{fill:#87e56c;}.av{fill:#70cc52;}.aw{opacity:0.22;}.ax{fill:#4b8e32;}</style><clipPath id="a"><rect class="a" width="768" height="907" transform="translate(0 117)"/></clipPath><linearGradient id="b" x1="0.5" y1="0.068" x2="0.5" y2="0.658" gradientUnits="objectBoundingBox"><stop offset="0" stop-color="#2480c2"/><stop offset="1" stop-color="#2480c2" stop-opacity="0"/></linearGradient><linearGradient id="c" x1="0" y1="0.5" x2="1" y2="0.5" xlink:href="#b"/><linearGradient id="e" x1="0.5" y1="0.866" x2="0.5" y2="-0.012" gradientUnits="objectBoundingBox"><stop offset="0" stop-color="#ffa488"/><stop offset="0.154" stop-color="#faaa8d"/><stop offset="0.572" stop-color="#f3b697"/><stop offset="1" stop-color="#f1ba9b"/></linearGradient><linearGradient id="f" y1="0.5" x2="1" y2="0.5" gradientUnits="objectBoundingBox"><stop offset="0" stop-color="#fff"/><stop offset="0.004" stop-color="#fefefe" stop-opacity="0.992"/><stop offset="0.125" stop-color="#fbeee7" stop-opacity="0.765"/><stop offset="0.248" stop-color="#f8e0d2" stop-opacity="0.561"/><stop offset="0.372" stop-color="#f6d4c1" stop-opacity="0.388"/><stop offset="0.496" stop-color="#f4cbb3" stop-opacity="0.247"/><stop offset="0.621" stop-color="#f2c3a8" stop-opacity="0.137"/><stop offset="0.746" stop-color="#f1bea1" stop-opacity="0.063"/><stop offset="0.872" stop-color="#f1bb9c" stop-opacity="0.016"/><stop offset="1" stop-color="#f1ba9b" stop-opacity="0"/></linearGradient><linearGradient id="g" x1="0.5" y1="0.789" x2="0.5" y2="0.172" xlink:href="#e"/><linearGradient id="h" x1="0.5" y1="0.088" x2="0.5" y2="0.911" xlink:href="#f"/><linearGradient id="i" y1="0.5" x2="1" y2="0.5" gradientUnits="objectBoundingBox"><stop offset="0" stop-color="#ffb63c"/><stop offset="0.172" stop-color="#ffae3c"/><stop offset="0.581" stop-color="#ffa23c"/><stop offset="1" stop-color="#ff9f3c"/></linearGradient><linearGradient id="j" y1="0.5" x2="1" y2="0.5" gradientUnits="objectBoundingBox"><stop offset="0" stop-color="#252640"/><stop offset="0.134" stop-color="#252645"/><stop offset="0.562" stop-color="#252651"/><stop offset="1" stop-color="#252655"/></linearGradient><linearGradient id="k" x1="0" y1="0.5" x2="1" y2="0.5" xlink:href="#e"/><linearGradient id="l" x1="0.761" y1="0.5" x2="1.425" y2="0.5" xlink:href="#f"/><linearGradient id="n" x1="0.5" y1="0.088" x2="0.5" y2="0.911" xlink:href="#e"/><linearGradient id="o" x1="0.649" y1="0.5" x2="1.313" y2="0.5" xlink:href="#f"/><linearGradient id="p" y1="0.5" x2="1" y2="0.5" gradientUnits="objectBoundingBox"><stop offset="0" stop-color="#ffb63c"/><stop offset="0.01" stop-color="#ffb53c"/><stop offset="0.335" stop-color="#ffa13c"/><stop offset="0.664" stop-color="#ff953c"/><stop offset="1" stop-color="#ff923c"/></linearGradient><linearGradient id="q" x1="0.5" y1="0.229" x2="0.5" y2="0.891" xlink:href="#i"/><linearGradient id="r" y1="0.5" x2="1" y2="0.5" gradientUnits="objectBoundingBox"><stop offset="0" stop-color="#395248"/><stop offset="1" stop-color="#393648"/></linearGradient><linearGradient id="s" x1="0.807" y1="0.5" x2="0.127" y2="0.5" xlink:href="#p"/><linearGradient id="t" x1="0.676" y1="0.5" x2="-0.08" y2="0.5" xlink:href="#p"/><clipPath id="u"><rect class="b" width="1015.402" height="650.01"/></clipPath></defs><g class="c" transform="translate(0 -117)"><g transform="translate(-1295.371 370.114)"><g transform="translate(1527.022 -27.355)"><path class="d" d="M1943.981-27.355V653.886H1410.141c-73.177-172.5,20.777-238.307,110.538-270.368,16.636-5.949,33.131-10.74,48.4-14.828,85.109-22.813,73.843-43.257,41.677-53.084-63.771-19.479-90.111-43.555-56.751-56.945,7.949-3.194,19.286-5.773,34.307-7.546,104.518-12.336,132.789-17.548,122.909-34.219-1.825-3.071-8.336-5.054-18.356-6.44h-.035c-24.234-3.334-68.93-3.141-117.311-6.16-25.182-1.562-51.346-3.983-76.142-8.23-26.007-4.44-50.522-10.88-70.808-20.409-128.4-60.244-65.556-196.41-65.556-196.41s-45.947-192.989,231.254-118.714c26.414-1.321,7.924-113.578,192.819-110.937,33.918,12.25,154.519-18.489,188.857,96.409C2007.371-107.953,1943.981-27.355,1943.981-27.355Z" transform="translate(-1347.633 27.355)"/><path class="e" d="M1695.781,105.443,1575.7,205.452c-25.182-1.562-51.346-3.983-76.143-8.23-26.007-4.44-50.522-10.88-70.808-20.409-128.4-60.244-63.577-196.646-63.577-196.646H1385.7c-6.282,31.306-6.057,102.692,36.112,120.609,66.07,28.077,89.9-21.058,154.022-23.41C1639.978,75.032,1695.781,105.443,1695.781,105.443Z" transform="translate(-1347.814 26.199)"/><path class="f" d="M1908.3,9.545v214L1518.324,264.33c7.949-3.194,19.286-5.773,34.307-7.546,104.519-12.337,132.789-17.548,122.909-34.219-1.825-3.071-8.335-5.054-18.356-6.44h-.035c-36.834-5.071-120.961-2-193.454-14.39-26.007-4.44-50.522-10.88-70.808-20.409,0,0,60.261,0,87.777-11.7,27.516-11.687,76.844-40.94,125.892-40.94,49.03,0,32.64-42.116,67.737-50.311,35.115-8.178,46.889,14.039,69.667,15.214,22.76,1.176,41.484-84.039,84.776-84.039Z" transform="translate(-1311.954 21.686)"/><path class="g" d="M1877.844,27.025V562.953c-17.531-3.352-57.945-11.038-105.1-20.163-102.8-19.847-237.693-46.38-237.693-48.89,0-.79-4.212-7.405-11-17.531-12.933-19.286-35.2-51.347-55.4-80.214-4.879-6.984-9.634-13.775-14.109-20.163q2.106-.763,4.212-1.474c15.2-5.282,30.218-9.617,44.187-13.354,85.11-22.813,73.843-43.257,41.677-53.084-78.968-24.129-100.535-55.277-22.445-64.49,104.518-12.337,132.789-17.548,122.909-34.219-1.825-3.071-8.335-5.054-18.356-6.44h-.035c-25.972-3.58-75.458-3.106-127.8-6.861-21.883-1.562-44.275-3.878-65.648-7.528,20.216-11.354,52.522-28.569,76.283-36.781,37.22-12.881,85.864-4.685,107.168-10.529,21.3-5.861,48.371-40.951,88.005-64.35,24.38-14.391,86.566-14.706,100.6-17.3C1818.32,57.191,1839.4,30.833,1877.844,27.025Z" transform="translate(-1281.496 34.88)"/><g transform="translate(202.369 41.351)"><path class="g" d="M1462.088,128.271s3.51-56.544,10.529-65.1,19.3,62.124,19.3,62.124" transform="translate(-1462.088 32.074)"/><path class="g" d="M1497.088,119.642s2.283-43.353,6.845-49.913,12.551,47.632,12.551,47.632" transform="translate(-1435.669 25.348)"/><path class="g" d="M1548.565,110.392s2.281-43.353,6.846-49.913,12.549,47.632,12.549,47.632" transform="translate(-1396.812 18.366)"/><path class="h" d="M1592.412,75s2.281-43.355,6.846-49.915,12.549,47.632,12.549,47.632" transform="translate(-1363.714 -8.351)"/><path class="h" d="M1535.953,127.249s2.283-43.355,6.846-49.915,12.55,47.632,12.55,47.632" transform="translate(-1406.332 31.089)"/><path class="h" d="M1482.463,146.167s3.02-57.367,9.058-66.049,16.606,63.029,16.606,63.029" transform="translate(-1446.708 33.056)"/><path class="g" d="M1633,60.406s1.284-24.406,3.853-28.1,7.065,26.816,7.065,26.816" transform="translate(-1333.078 -2.719)"/><path class="g" d="M1667.832,45.74s1.284-24.408,3.853-28.1,7.067,26.817,7.067,26.817" transform="translate(-1306.784 -13.79)"/><path class="g" d="M1529.2,63.165c-3.917,5.633-7.87,38.092-8.425,47.244a2.242,2.242,0,0,0,2.249,2.374h6.175v5.184h3.253v-5.184h6.644a1.777,1.777,0,0,0,1.767-2.036C1539.38,100.7,1533.244,57.354,1529.2,63.165Z" transform="translate(-1417.791 20.406)"/><path class="h" d="M1611.321,29.869c-2.262,3.252-4.543,21.99-4.864,27.274a1.294,1.294,0,0,0,1.3,1.371h3.566v2.992h1.878V58.514h3.836a1.026,1.026,0,0,0,1.019-1.176C1617.2,51.535,1613.655,26.516,1611.321,29.869Z" transform="translate(-1353.114 -4.556)"/><path class="h" d="M1664.571,29.869c-2.262,3.252-4.543,21.99-4.864,27.274a1.294,1.294,0,0,0,1.3,1.371h3.566v2.992h1.878V58.514h3.836a1.026,1.026,0,0,0,1.019-1.176C1670.447,51.535,1666.905,26.516,1664.571,29.869Z" transform="translate(-1312.919 -4.556)"/><path class="g" d="M1648.231,15.846c-3.918,5.631-7.87,38.092-8.425,47.242a2.242,2.242,0,0,0,2.249,2.374h6.175v5.186h3.253V65.462h6.644a1.778,1.778,0,0,0,1.767-2.036C1658.41,53.375,1652.275,10.035,1648.231,15.846Z" transform="translate(-1327.942 -15.312)"/></g><path class="i" d="M1866.868,31.995V567.116l-105.1-28.077L1692.4,520.507l-179.327-47.89-20.69-5.528s-17.952-38.238-34.711-74.686c-3.4-7.388-6.756-14.723-9.9-21.637,15.2-5.282,30.218-9.617,44.187-13.354,85.11-22.813,73.844-43.257,41.677-53.084-78.968-24.129-100.535-55.277-22.445-64.49,29.692-3.51,53.224-6.423,71.474-9.213h.018c46.012-7,58.489-13.074,51.417-25.006-1.825-3.071-8.335-5.054-18.356-6.44h-.035c-20.374-2.808-55.242-3.124-94.6-4.931-10.792-.509-21.936-1.123-33.2-1.93,11.915-9.494,36.009-26.2,64.824-32.324,41.239-8.774,59.085,1.667,82.495-5.352,23.392-7.019,30.1-73.914,69.86-93.8,19.689-9.845,74.405,5.265,93.954,2.632S1866.868,31.995,1866.868,31.995Z" transform="translate(-1270.521 38.632)"/><path class="h" d="M1822.476,95.462V298.906L1506.588,256.3s30.85-61.565,31.692-61.688h.018c46.012-7,58.489-13.074,51.417-25.006-1.825-3.071-8.335-5.054-18.356-6.44,0,0,18.257-12.863,38.18-18.419,17.466-4.873,53.221,1.02,66.172,4.9,12.933,3.878,29.886-43.032,63.622-61.411C1781.089,65.484,1822.476,95.462,1822.476,95.462Z" transform="translate(-1226.129 74.647)"/><path class="j" d="M1835.875,188.841v217.6l-1.158-.053-.562-.035-97.6-4.51-148.126-6.861-64.052-162.744-16.671-31.78-18.865-24.5L1604.8,142.18s9.827-13.2,11.02-5.563c3.983,25.6-33.816,32.938-56.05,35.992-25.638,3.51-17.548,14.477-3.931,17.689,33.465,7.9,58.594,1.053,82.583,3.352,23.971,2.3,47.117,21.479,104.922,21.479C1764.839,215.129,1795.935,193.106,1835.875,188.841Z" transform="translate(-1239.527 115.811)"/><path class="h" d="M1849.605,31.995v9.839s-48.458,36.292-64.508,32.61c-61.2-14.039-44.677,12.431-68.623,16.627-30.038,5.265-59.342,61.426-72.643,78.378-13.3,16.969-39.923,8.2-73.124,11.126-20.655,1.807-51.678,2.248-66.858,13.672-10.792-.509-21.935-1.123-33.2-1.93,11.915-9.494,36.009-26.2,64.824-32.324,41.239-8.774,59.085,1.667,82.495-5.352,23.392-7.019,30.1-73.914,69.86-93.8,19.689-9.845,74.405,5.265,93.954,2.632S1849.605,31.995,1849.605,31.995Z" transform="translate(-1253.258 38.632)"/><path class="h" d="M1733.554,269.866v50.329c-.614,1.176-1.053,1.878-1.158,2.071a.227.227,0,0,1-.035.053l-.526-.088-105.887-16s-7.054-20.567,8.879-27.832c15.056-6.861,24.094,11.652,25.077,13.723-.825-2.194-10.573-22.164,1.026-27.13,8.406-3.6,14.854,6.616,16.469,13.407-1.807-11.635-2.878-29.464,8.757-32.272,14.477-3.492,18.356,15.127,18.356,15.127s3.773-16.18,14.091-12.723c10.09,3.387.57,23.624.237,24.255C1719.3,272.642,1727.728,265.882,1733.554,269.866Z" transform="translate(-1137.206 199.935)"/><path class="k" d="M1638.158,307.522s-9.718-16.292,0-20.2,14.983,8.809,14.983,8.809-4.45-13.03,5.452-16.057,11.438,13.726,11.438,13.726-5.045-23.5,6.8-25.5,12.942,14.449,12.942,14.449-.4-23.683,8.335-23.683c11.626,0,5.923,24.877,5.923,24.877s10.338-12.6,15.794,1.618-2.194,28.258-2.194,28.258" transform="translate(-1130.075 210.032)"/><path class="h" d="M1593.582,144.63s2.281-43.353,6.846-49.915,12.549,47.633,12.549,47.633" transform="translate(-1160.462 85.56)"/><path class="h" d="M1651.264,112.87s2.281-43.353,6.846-49.915,12.549,47.633,12.549,47.633" transform="translate(-1116.922 61.586)"/><path class="h" d="M1668.264,124.771s2.281-43.353,6.846-49.913,12.549,47.632,12.549,47.632" transform="translate(-1104.089 70.571)"/><path class="h" d="M1581.651,131s1.263-24,3.791-27.635,6.947,26.372,6.947,26.372" transform="translate(-1169.468 92.278)"/><path class="h" d="M1620.082,140.595s3.683-70.009,11.053-80.6S1651.4,136.91,1651.4,136.91" transform="translate(-1140.459 59.093)"/><path class="l" d="M1900.7,400.248V570.7H1453.375l-33.5-79.389c-6.7-15.881-11.052-32.6-14.056-49.592-21.935-124.042,89.3-147.354,91.919-148.143,1.263-.4,23.094-6.739,28.06-8.072,85.11-22.813,73.843-43.257,41.677-53.084-78.968-24.129-100.535-55.277-22.445-64.49,104.519-12.337,132.789-17.548,122.909-34.219-1.825-3.071-8.335-5.054-18.356-6.44,1.6.018,41.5,1.281,28.534,24.024-11.758,20.567-126.858,26.884-100.026,45.292,13.3,9.143,161.831,22.076,164.025,63.753s-49.68,71.755-14.056,102.061C1786.04,411.707,1900.7,400.248,1900.7,400.248Z" transform="translate(-1304.354 110.545)"/><path class="m" d="M1900.7,400.248V570.7H1453.375l-33.5-79.389c-6.7-15.881-11.052-32.6-14.056-49.592-21.935-124.042,89.3-147.354,91.919-148.143,1.263-.4,23.094-6.739,28.06-8.072,85.11-22.813,73.843-43.257,41.677-53.084-78.968-24.129-100.535-55.277-22.445-64.49,104.519-12.337,132.789-17.548,122.909-34.219-1.825-3.071-8.335-5.054-18.356-6.44,1.6.018,41.5,1.281,28.534,24.024-11.758,20.567-126.858,26.884-100.026,45.292,13.3,9.143,161.831,22.076,164.025,63.753s-49.68,71.755-14.056,102.061C1786.04,411.707,1900.7,400.248,1900.7,400.248Z" transform="translate(-1304.354 110.545)"/><path class="j" d="M1665.07,183.518s-12.329-3.733-9.651-9.964c2.669-6.21,11.991,3.478,11.991,3.478s-8.444-12.759-3.29-16.38,9.543,13.381,9.543,13.381-2.179-13.274,4.387-12.675c6.689.611,1.1,12.347,1.1,12.347s4.278-6.365,7.458-4.059c4.321,3.136-3.181,11.257-3.181,11.257" transform="translate(-1114.073 135.366)"/><path class="j" d="M1551.061,176.1s-7.625-3.48-5.356-7.265,7.43,3.287,7.43,3.287-4.334-8.962-.7-10.847,4.989,9.459,4.989,9.459-.251-8.75,3.932-7.791c4.261.976-.368,8.056-.368,8.056s3.313-3.731,5.163-1.967c2.513,2.4-3.031,6.981-3.031,6.981" transform="translate(-1196.92 136.06)"/><path class="n" d="M1527.316,297.552c-23.8-18.743-42.786-14.09-27.684,20.481,11.775,26.956,69.244,101.819,117.793,132.331H1831.8S1667.452,407.921,1527.316,297.552Z" transform="translate(-1235.45 230.877)"/><path class="o" d="M1835.321,394.36V521.633c-77.22-18.566-129.044-77.576-138.406-101.577-11.465-29.4-111.711-87.379-107.728-118.51S1641.1,291,1642.657,262.8c1.562-28.183-97.341-18.075-100.377-32.763s11.582-8.546,10.055-22.655-59.893-8.283-62.4-19.9c-2.527-11.617,8.441-13.6,25.551-14.916s36.6-13.7,55.488-14.776c37.08-2.1,43.994-20.742,44.134-22.725.6,2.825-.035,6.23-2.369,10.336-11.758,20.567-126.858,26.884-100.026,45.292,13.3,9.143,161.831,22.076,164.025,63.753s-49.68,71.755-14.057,102.061C1720.659,405.819,1835.321,394.36,1835.321,394.36Z" transform="translate(-1238.973 116.433)"/></g><g transform="translate(1788.177 207.067)"><path class="p" d="M1596.639,309.527l-5.756,2.7-.86.4-.562.263s-.053-.158-.175-.439c-2.018-5.282-21.69-56.734-24.673-74.739-3.51-21.2,1.983-27.884,7.458-29.8,5.475-1.93,24.024,1.7,32.271,3.475,2.474.526,4.036.9,4.036.9l-.72.877c7.739,2.545,14.477,5.282,14.477,5.282l1.79,44.117s-27.182-14.671-33.236-19.3a76.86,76.86,0,0,1,4.773,28.323C1595.1,292.136,1596.639,309.527,1596.639,309.527Z" transform="translate(-1444.318 -63.409)"/><path class="q" d="M1567.825,229.682c.942,19.333,20.812,75.142,23.059,82.548.123.439.193.667.193.667l-1.053-.263-.737-.175c-2.018-5.282-21.69-56.734-24.673-74.739-3.51-21.2,1.983-27.884,7.458-29.8,5.475-1.93,24.024,1.7,32.271,3.475-1.193,2.509-2.422,4.756-2.422,4.756s-20.637-6.142-26.34-3.51C1569.9,215.274,1567.386,220.677,1567.825,229.682Z" transform="translate(-1444.318 -63.409)"/><path class="r" d="M1578.818,245.894s4.473-29.75,11.71-36.781l61.934,11.156-48.457,31.9Z" transform="translate(-1432.762 -62.094)"/><g transform="translate(0 176.222)"><path class="d" d="M1593.93,304.126c-1.246-21.356-7.318-41.2-17.11-55.892-10.161-15.25-23.234-23.217-36.641-22.427-13.46.772-25.463,10.178-33.816,26.516-8.037,15.706-11.775,36.132-10.546,57.488s7.318,41.2,17.109,55.892c9.7,14.565,22.023,22.5,34.833,22.5.6,0,1.211-.018,1.807-.053C1576.609,386.586,1596.509,348.892,1593.93,304.126Zm-41.748,76.634a19.585,19.585,0,0,1-2,.281h-.088a8.35,8.35,0,0,1-.93.088h-.176q-.763.053-1.527.053h-.14c-.193,0-.368,0-.562-.018-10.038-.421-19.917-7.23-28.007-19.356-9.108-13.67-14.758-32.271-15.934-52.4-1.158-20.145,2.316-39.273,9.792-53.891,7.16-14.021,17.109-22.076,27.972-22.708.207-.016.414-.01.621-.016.289-.007.579-.016.869-.014.605,0,1.211.026,1.814.074l.019,0c9.731.8,19.242,7.532,27.07,19.275a90.023,90.023,0,0,1,10.95,23.778,123.035,123.035,0,0,1,4.984,28.639c2.264,39.028-13.056,72.106-34.623,76.2A.222.222,0,0,1,1552.182,380.76Z" transform="translate(-1495.587 -225.754)"/></g><g transform="translate(2.983 183.242)"><path class="s" d="M1540.789,229.76c.605,0,1.211.026,1.814.074C1542,229.794,1541.394,229.764,1540.789,229.76Zm48.365,71.61c-1.158-19.514-6.826-37.659-15.987-51.066-8.562-12.566-19.324-19.7-30.545-20.468,9.73.8,19.242,7.532,27.07,19.275a90.018,90.018,0,0,1,10.95,23.778,123.035,123.035,0,0,1,4.984,28.639c2.264,39.028-13.056,72.106-34.623,76.2C1574.572,373.634,1591.453,340.45,1589.154,301.37Zm-81.793-47.346c-7.51,14.355-11,33.009-9.862,52.522,1.158,19.514,6.826,37.641,15.987,51.066,8.932,13.091,20.216,20.321,31.991,20.532-10.038-.421-19.918-7.23-28.007-19.356-9.108-13.67-14.758-32.271-15.934-52.4-1.158-20.145,2.316-39.273,9.792-53.891,7.16-14.021,17.109-22.076,27.972-22.708.207-.016.414-.011.621-.016-.323.009-.648,0-.972.016C1526.366,230.51,1515.153,239.108,1507.361,254.024Zm35.262-24.189-.019,0Zm-2.7-.061c.289-.007.579-.016.869-.014-.041,0-.081-.005-.121-.005C1540.419,229.755,1540.17,229.769,1539.92,229.774Z" transform="translate(-1497.287 -229.755)"/></g><g transform="translate(155.037 249.453)"><path class="s" d="M1703.076,350.98c-1.334-22.953-8.617-44.222-20.514-59.91a68.109,68.109,0,0,0-15.741-15.25c-.017-.018-.035-.018-.053-.035-8.774-5.931-18.391-8.792-28.183-8.23-32.8,1.9-57.208,42.414-54.435,90.3,2.053,35.413,18.391,65.1,40.028,77.388a44.278,44.278,0,0,0,22.058,6.107c.79,0,1.6-.018,2.387-.07C1681.421,439.389,1705.831,398.887,1703.076,350.98Zm-54.857,83.3c-28.972,1.685-54.523-32.8-57.067-76.827s18.917-81.214,47.837-82.881c.667-.053,1.334-.07,2.018-.07,13.039,0,25.744,7.335,35.957,20.812,11.073,14.583,17.847,34.5,19.093,56.067C1698.6,395.43,1677.139,432.615,1648.219,434.282Z" transform="translate(-1583.935 -267.485)"/></g><g transform="translate(158.707 251.737)"><path class="d" d="M1701.5,350c-1.334-22.953-8.616-44.222-20.514-59.91a68.109,68.109,0,0,0-15.741-15.25c-.017-.018-.035-.018-.053-.035a44.419,44.419,0,0,0-24.5-5.949c-32.8,1.9-57.208,42.414-54.453,90.3,1.93,33.377,16.565,61.683,36.36,75.107a44.279,44.279,0,0,0,22.058,6.107c.79,0,1.6-.018,2.387-.07C1679.842,438.406,1704.252,397.9,1701.5,350Zm-54.856,83.3c-28.972,1.685-54.523-32.8-57.067-76.827s18.917-81.214,47.837-82.881c.667-.053,1.334-.07,2.018-.07,13.038,0,25.744,7.335,35.956,20.812,11.073,14.583,17.847,34.5,19.093,56.067C1697.022,394.448,1675.56,431.633,1646.641,433.3Z" transform="translate(-1586.027 -268.787)"/></g><path class="t" d="M1586.325,265.165s2.617-1.49,4.5-.5,1.205,2.731,2.346,4.12,2.432,4.268-.893,6.7-9.827,6.832-11.213,7.653c-4.984,2.948-10.566-.025-9.727-2.26.965-2.567,7.432-9.139,9.527-10.554C1582.91,268.946,1583.974,266.3,1586.325,265.165Z" transform="translate(-1438.471 -20.417)"/><g transform="translate(62.577 132.78)"><path class="d" d="M1687.057,410.074l-87.98-55.99-.323-.728L1531.247,201l131.658,77.687ZM1603.245,350.5,1679.7,399.15,1658.16,282l-115.449-68.123Z" transform="translate(-1531.247 -200.999)"/></g><g transform="translate(135.65 215.602)"><path class="u" d="M1632.4,249.631l-55.339,72.39-4.176-3.194,1.843-2.4,52.154-68.228,2.784,1.271Z" transform="translate(-1572.888 -248.195)"/></g><g transform="translate(137.493 215.602)"><path class="d" d="M1628.876,249.466l-52.6,68.747-2.334-1.79,52.154-68.228Z" transform="translate(-1573.938 -248.195)"/></g><line class="v" x2="80.375" y2="57.507" transform="translate(138.012 262.928)"/><line class="v" x2="83.508" y2="42.286" transform="translate(129.451 311.711)"/><ellipse class="d" cx="12.718" cy="18.946" rx="12.718" ry="18.946" transform="translate(200.916 318.213) rotate(-3.31)"/><ellipse class="d" cx="18.946" cy="12.718" rx="18.946" ry="12.718" transform="matrix(0.09, -0.996, 0.996, 0.09, 34.921, 275.171)"/><path class="s" d="M1535.483,278.064c-.611,6.777-4.791,11.938-9.339,11.529s-7.742-6.233-7.133-13.01,4.791-11.936,9.339-11.528S1536.092,271.289,1535.483,278.064Z" transform="translate(-1477.963 -19.884)"/><g transform="translate(116.359 261.168)"><path class="d" d="M1597.727,299.787c.849,14.713-6.466,27.1-16.343,27.674s-18.571-10.892-19.423-25.6,6.467-27.1,16.343-27.674S1596.876,285.074,1597.727,299.787Z" transform="translate(-1561.895 -274.161)"/></g><g transform="translate(122.407 255.683)"><path class="d" d="M1567.1,348.372a1.658,1.658,0,0,1-.421-.053,1.753,1.753,0,0,1-1.285-2.123l18.207-73.824a1.755,1.755,0,0,1,3.408.839L1568.8,347.036A1.756,1.756,0,0,1,1567.1,348.372Z" transform="translate(-1565.341 -271.036)"/></g><g transform="translate(46.651 134.031)"><path class="u" d="M1568.089,205.192l-40.8,120.768a2.612,2.612,0,0,1-2.492,1.79,2.36,2.36,0,0,1-.842-.14,2.107,2.107,0,0,1-.561-.281,2.624,2.624,0,0,1-1.088-3.053l40.8-120.768a2.592,2.592,0,0,1,1.86-1.7,2.365,2.365,0,0,1,1.474.053A2.608,2.608,0,0,1,1568.089,205.192Z" transform="translate(-1522.172 -201.712)"/></g><g transform="translate(46.651 134.124)"><path class="d" d="M1566.054,204.818l-40.8,120.768a2.593,2.593,0,0,1-1.86,1.7,2.623,2.623,0,0,1-1.088-3.053l40.8-120.768a2.592,2.592,0,0,1,1.86-1.7A2.64,2.64,0,0,1,1566.054,204.818Z" transform="translate(-1522.172 -201.765)"/></g><path class="s" d="M1585.8,294.927c.454,7.858-3.454,14.476-8.73,14.781s-9.92-5.817-10.375-13.677,3.454-14.476,8.731-14.781S1585.346,287.067,1585.8,294.927Z" transform="translate(-1441.939 -7.651)"/><g transform="translate(188.622 183.56)"><rect class="w" width="30.124" height="7.02" transform="matrix(0.471, -0.882, 0.882, 0.471, 0, 26.578)"/></g><path class="s" d="M1629.173,321.607c.374,6.456-2.836,11.892-7.17,12.143s-8.149-4.78-8.523-11.236,2.837-11.893,7.172-12.143S1628.8,315.151,1629.173,321.607Z" transform="translate(-1406.62 14.332)"/><path class="x" d="M1587.086,275.263a124.151,124.151,0,0,1-13.9,3.176,74.4,74.4,0,0,1,7.493,32.8c.105,20.567-2.51,47.819-2.51,47.819-.14,1.562,3.58,3.159,3.106,5.791s-5.054,4.6-6.475,6.019c-1.421,1.439-9.423,2.316-9.581,1.755-.14-.544,1.948-4.37,2.79-5.58.685-1.018,1.931-1.965,2.791-3.036a3.756,3.756,0,0,0,.93-1.79c.333-1.878,0-2.334,0-2.334s-19.022-60.963-21.023-80.108c-.579-5.4-1.737-11.284-.158-15.285,2.246-5.633,9-11.161,15.215-15.285a110.09,110.09,0,0,1,11.863-6.861q.79-.474,1.527-.895c3.685-2.158,6.317-3.562,6.317-3.562l36.711,21.585S1594.334,273.069,1587.086,275.263Z" transform="translate(-1454.7 -40.376)"/><path class="y" d="M1563.8,318.62c3.79,15.513,10.09,44.31,10.09,44.31l-3.089-.456a3.756,3.756,0,0,0,.93-1.79c.333-1.878,0-2.334,0-2.334s-19.022-60.963-21.023-80.108c-.579-5.4-1.737-11.284-.158-15.285,2.246-5.633,9-11.161,15.215-15.285a110.09,110.09,0,0,1,11.863-6.861q.79-.474,1.527-.895l.872,6.251s-23.955,12.326-24.861,19.888C1553.7,278.276,1559.992,303.124,1563.8,318.62Z" transform="translate(-1454.7 -38.844)"/><path class="z" d="M1612.727,255.245c-9.581-3.036-18.321-10.862-18.321-10.862l7.283-.93,19.356-2.474,12.267,5.984s3.211,1.018,4.141,2.492a.531.531,0,0,1,.088.123C1641.068,255.964,1618.606,257.1,1612.727,255.245Z" transform="translate(-1420.994 -38.041)"/><path class="aa" d="M1634.32,249.454c-5.809,2.281-17.812,2.334-21.953,1.263-4.9-1.246-10.178-4.633-13.81-7.265l19.356-2.474,12.266,5.984S1633.39,247.98,1634.32,249.454Z" transform="translate(-1417.862 -38.041)"/><path class="ab" d="M1671.061,247.085c-.947,5.721-6.31,13.454-15.839,16.964-3.966,1.457-10.606.813-14.818,1.163-20.935,12.038-61.4,24.313-61.4,24.313s-11.808-17.8-14.567-31.877c0,0,40.923-27.235,52.61-32.5,0,0,32.184-2.053,48.855-6.44A42.639,42.639,0,0,1,1671.061,247.085Z" transform="translate(-1443.617 -54.851)"/><path class="ac" d="M1658.554,185.961s-24.831,34.465-42.4,39.817a24.03,24.03,0,0,1-6.9.825c-11.986,0-30.447-5.124-42.731-9.037-1.913-.579-5.089-1.562-6.58-2.053.438.737-5.616,3.036-8.318,1.176s-2.931-5.036-2.79-7.37c.105-1.7,1.141-3.018,3.738-3.826a19.989,19.989,0,0,1,3.685-.737c3.124-.351,8.774,2.808,9.634,3.387,1.035.684,1.6,1.158,4.422,1.158h.158c12.933-.035,30.534.333,40.028,2.3v-.018c7.212-15.46,21.163-39.607,21.163-39.607Z" transform="translate(-1455.413 -90.128)"/><path class="ad" d="M1608.885,197.51a8.234,8.234,0,0,0-.562,2.685c-4.878-.983-40.519-1.965-43.309-2.738-2.808-.755-2.58-1.755-5.879-3.878-3.124-2.036-7.722-2.158-8.178-2.176a20,20,0,0,1,3.685-.737c3.124-.351,8.774,2.808,9.634,3.387,1.035.684,1.6,1.158,4.422,1.158h.158C1581.79,195.177,1599.391,195.545,1608.885,197.51Z" transform="translate(-1453.791 -76.039)"/><path class="ae" d="M1605.666,166.519l-15.616,28.528s10.366,10.636,23.534,16.113c0,0,18.687-17.834,16.511-31.14S1619.519,155.768,1605.666,166.519Z" transform="translate(-1424.283 -97.531)"/><path class="af" d="M1584.631,162.564s3.515,7.76,6.256,12.366c2.02,3.392,14.37,3.675,16.446.605s-8.006-20.839-8.006-20.839" transform="translate(-1428.374 -103.17)"/><path class="ag" d="M1607.853,258.884l-.126.01c19.935-5.7,15.214-30.569,14.9-31.815,2.741,5.312,2.357,10.1,2.3,14.414C1624.817,250.574,1616.9,258.1,1607.853,258.884Z" transform="translate(-1410.94 -48.533)"/><g transform="translate(39.969 119.587)"><path class="u" d="M1579.58,195.927a2.268,2.268,0,0,1-.07.772,2.619,2.619,0,0,1-2.369,2.036l-55.962,3.9h-.193a2.627,2.627,0,0,1-.176-5.247l.456-.035,55.505-3.861A2.61,2.61,0,0,1,1579.58,195.927Z" transform="translate(-1518.364 -193.481)"/></g><g transform="translate(42.795 119.587)"><path class="d" d="M1578.364,195.927a2.262,2.262,0,0,1-.07.772l-55.506,3.843a.6.6,0,0,1-.176.018,2.655,2.655,0,0,1-2.632-2.457,2.17,2.17,0,0,1,.07-.755l55.505-3.861A2.61,2.61,0,0,1,1578.364,195.927Z" transform="translate(-1519.974 -193.481)"/></g><path class="ac" d="M1628.958,195.228s-2.65,3.018-6.861,7.318c-9.459,9.652-26.726,25.708-39.2,28.218a27,27,0,0,1-8.511-.018c-14.653-1.9-37.027-11.231-47.293-15.846.351.772-5.9,1.755-8.371-.4s-2.369-4.7-1.966-7.037c.351-2,1.931-3.282,5.826-3.58a18.981,18.981,0,0,1,2.071-.088c3.124,0,8.388,3.773,9.178,4.44a11.451,11.451,0,0,0,6.493,2.808c12.951,1.211,28.832,2.106,38.325,5.072,8.669-14.706,24.9-37.4,24.9-37.4Z" transform="translate(-1479.778 -85.04)"/><path class="ah" d="M1597.212,192.295c-9.459,9.652-26.726,25.708-39.2,28.218a27,27,0,0,1-8.511-.018c.14-.018.3-.035.456-.053,17.987-1.772,39.922-26.9,39.922-26.9Z" transform="translate(-1454.893 -74.789)"/><path class="ai" d="M1576.045,205.324l-1.106,2.4c-8.774-3-27.27-3.948-37.659-6.072s-6.756-3.176-10.968-5.6a47.583,47.583,0,0,0-6.335-2.966,18.991,18.991,0,0,1,2.071-.088c3.124,0,8.388,3.773,9.178,4.44a11.452,11.452,0,0,0,6.493,2.808C1550.67,201.463,1566.551,202.358,1576.045,205.324Z" transform="translate(-1477.176 -74.253)"/><path class="z" d="M1669.382,261.175a1.818,1.818,0,0,1-.86,1.211c-4.633,2.948-10.67,4.738-16.9,5.791a.91.91,0,0,0-.193.035c-.667.105-1.351.211-2.018.3h-.035a134.205,134.205,0,0,1-29.71.316s-2.3.105-3.036-1.386c-.456-.948.562-3.106.491-4.527-.316-5.563,1.351-13.723.351-17.039-2.334-7.774-13.565-26.516-17.109-32.324a27.075,27.075,0,0,0-2.334-3.282c-.544-.667-1.123-1.334-1.7-2.018a82.94,82.94,0,0,1-13.091,13.986c-9.3-4.984-17-12.793-20.409-16.531-1.193-1.334-1.86-2.141-1.86-2.141l18.3-26.867c0-.018.018-.018.035-.035,1.685-2.6,6.142-5.089,11.863-7.318.035-.018.053-.035.088-.053,13.793-5.3,34.869-9,42.642-8.388a26.581,26.581,0,0,1,3.264.456,28.351,28.351,0,0,1,18.76,13.951c16.355,28.639,14.477,68.088,13.161,81.986C1668.926,259,1669.487,260.315,1669.382,261.175Z" transform="translate(-1446.235 -98.535)"/><path class="aj" d="M1591.169,165.685a.354.354,0,0,1-.14.07c-2.6,1.053-6.542,3.934-9.852,8.307-2.31,3.053-18.349,27.983-18.349,27.983-1.193-1.334-1.86-2.141-1.86-2.141l18.3-26.867c0-.018.018-.018.035-.035C1580.991,170.405,1585.448,167.914,1591.169,165.685Z" transform="translate(-1446.235 -94.875)"/><path class="af" d="M1573.4,152.456s2.558,16.752,1.314,23.48,5.939,11.986,18.352,7.867c0,0,12.538-4.866,17.432-12.1,6.49-9.587,10.792-29.806-6.172-38.122C1590.589,126.846,1570.628,137.31,1573.4,152.456Z" transform="translate(-1437.046 -120.681)"/><path class="af" d="M1574.956,148.769s-2.025,4.364-1.806,6.058,3.706,1.765,3.706,1.765" transform="translate(-1437.053 -107.644)"/><path class="ak" d="M1616.352,142.033a18.257,18.257,0,0,0-13.777-11.263v0l-.181-.037a25.421,25.421,0,0,0-3.968-.435,34.073,34.073,0,0,0-27.409,11.3s-2.741,7.72,10.982,11.756a23.926,23.926,0,0,1,1.741,5.354c2.341,11.406,8.018,21.128,11.554,23.215s16.148-.835,18.05-2.006S1622.933,157.388,1616.352,142.033Z" transform="translate(-1438.818 -121.617)"/><path class="af" d="M1577.791,148.607s1.439-4.136,4.873-2.443,1.06,12.321-2.631,10.784" transform="translate(-1433.537 -109.918)"/><path class="al" d="M1574.877,143.415s2.329,14.542,7.634,17.647c6.782,3.969,15.776-13.395,15.776-13.395l-2.306-.43s-6.553,13.468-11.971,12.619c-4.642-.728-7.439-17.271-7.439-17.271" transform="translate(-1435.736 -112.312)"/><path class="al" d="M1581.492,153.284s-2.069,14.846,5.03,15.185c0,0-.446.869-2.434.869-2.146,0-6.1-3.826-4.5-16.748" transform="translate(-1432.461 -104.761)"/><path class="z" d="M1621.21,163.03s-24.217-.193-39.168-5.458a.194.194,0,0,1-.07-.035,30.428,30.428,0,0,1-6.563-3.106,14.466,14.466,0,0,1-4.387-4.3c-5.195-8.178,2.369-18.285,2.369-18.285,4.615-4.615,12.845-10.424,32.394-2.86.158.07.316.123.474.211a.57.57,0,0,0,.176.053l.017.018a23.134,23.134,0,0,1,5.528,3.229v.018C1624.842,142.656,1621.21,163.03,1621.21,163.03Z" transform="translate(-1440.021 -125.334)"/><path class="am" d="M1615.716,159.942s-24.217-.193-39.168-5.458a.189.189,0,0,1-.07-.035s20.228,2.634,27.254-4.715c7.465-7.806,6.061-15.088,2.753-20.309C1619.348,139.568,1615.716,159.942,1615.716,159.942Z" transform="translate(-1434.528 -122.246)"/><path class="aj" d="M1606.259,129.2c-1.878-.667-16.538-5.431-25.709-.474-11.912,6.44-9.529,21.409-9.529,21.409-5.195-8.178,2.369-18.285,2.369-18.285,4.615-4.615,12.845-10.424,32.394-2.86C1605.943,129.056,1606.1,129.109,1606.259,129.2Z" transform="translate(-1440.021 -125.334)"/><g transform="translate(33.442 123.81)"><path class="u" d="M1523.337,199.463c-.07.737-.79,1.193-1.474,1.474l-4.4.3h-.193a2.612,2.612,0,0,1-2.615-2.439,2.511,2.511,0,0,1,.369-1.527,2.574,2.574,0,0,1,2.071-1.281l1.246-.088a5.008,5.008,0,0,1,4.4,1.983,3.1,3.1,0,0,1,.561,1.053A1.1,1.1,0,0,1,1523.337,199.463Z" transform="translate(-1514.644 -195.887)"/></g><g transform="translate(33.817 123.81)"><path class="d" d="M1523.176,199.463l-5,.333h-.246a3.11,3.11,0,0,1-3.071-2.527,2.573,2.573,0,0,1,2.071-1.281l1.246-.088a5.008,5.008,0,0,1,4.4,1.983,3.1,3.1,0,0,1,.562,1.053A1.1,1.1,0,0,1,1523.176,199.463Z" transform="translate(-1514.858 -195.887)"/></g><path class="an" d="M1634.166,251.471a134.211,134.211,0,0,1-29.71.316s-2.3.105-3.036-1.386c-.456-.948.562-3.106.491-4.527-.316-5.563,1.351-13.723.351-17.039-2.334-7.774-13.565-26.516-17.109-32.324a27.091,27.091,0,0,0-2.334-3.282c-.544-.667-1.123-1.334-1.7-2.018,0,0,3.914-5.019,5.633-7.792,0,0,14.723,23.69,20.286,37.29,5.546,13.6,1.018,25.445,2.036,27.639C1610.019,250.348,1626.584,252.173,1634.166,251.471Z" transform="translate(-1431.026 -81.49)"/><path class="t" d="M1570.05,306.957s2.616-1.49,4.5-.5,1.2,2.731,2.346,4.119,2.43,4.268-.893,6.7-9.829,6.832-11.215,7.651c-4.984,2.95-10.566-.024-9.727-2.258.965-2.569,7.434-9.141,9.529-10.554C1566.635,310.741,1567.7,308.1,1570.05,306.957Z" transform="translate(-1450.755 11.13)"/><path class="s" d="M1560.262,319.1a1.754,1.754,0,0,1-.316-3.48l15.844-2.915a1.754,1.754,0,1,1,.633,3.45l-15.843,2.915A1.665,1.665,0,0,1,1560.262,319.1Z" transform="translate(-1448.092 16.077)"/><path class="s" d="M1575.828,276a1.754,1.754,0,0,1-.314-3.48l15.843-2.915a1.755,1.755,0,0,1,.634,3.452l-15.843,2.915A1.8,1.8,0,0,1,1575.828,276Z" transform="translate(-1436.341 -16.453)"/><path class="d" d="M1541.985,228.407l-1.219-2.751,2.491-7.375,1.219,2.751Z" transform="translate(-1461.484 -55.174)"/><path class="d" d="M1546.046,215.407l-1.791-1.057,1.722-5.1,1.791,1.057Z" transform="translate(-1458.851 -61.988)"/><g transform="translate(145.47 57.356)"><path class="ao" d="M1578.484,167.038s8.92-3.315,15.193,12.273l8.086-2.218s-3.95-12.472-12.6-13.453A18.244,18.244,0,0,0,1578.484,167.038Z" transform="translate(-1578.484 -153.784)"/><path class="al" d="M1662,265.248a5.354,5.354,0,0,1-4.194,5.159,162,162,0,0,1-28.709,4.159c-8.564.491-14.986-.93-18.11-12.863-4.212-16.057-15.793-42.7-23.725-67.737-2.579-8.125-8.019-25.954,13.583-31.306.018,0,.018-.018.035-.018.649-.158,1.334-.316,2.053-.439a.054.054,0,0,1,.035-.018c.369-.07.755-.14,1.141-.211,2.4-.4,4.825-.877,7.212-1.281,2.457-.421,4.878-.825,7.247-1.193,6.247-.965,15.109-2.036,20.339.614,6.353,3.246,8.634,10.95,10.687,17.97C1656.951,203.109,1661.952,243.277,1662,265.248Z" transform="translate(-1573.784 -157.695)"/><path class="ap" d="M1660.473,264.819a5.354,5.354,0,0,1-4.194,5.159,79.907,79.907,0,0,1-18.01,3.334c-8.546.491-13.809.9-18.175-14.214-4.608-15.951-13.291-40.714-23.725-67.719-4.982-12.9-7.364-25.331,13.424-31.113,2.457-.421,4.879-.825,7.248-1.193,6.247-.965,15.109-2.036,20.339.614,6.353,3.246,8.634,10.95,10.687,17.97C1655.419,202.68,1660.421,242.848,1660.473,264.819Z" transform="translate(-1567.568 -158.018)"/><path class="aq" d="M1611.744,197.843s-6.544.8-3.711,10.668,7.233,26.323,9.2,30.052,33.842-2,35.75-3.838c2.852-2.753,1.974-36.632-3.362-40.033C1646.211,192.517,1620.957,194.414,1611.744,197.843Z" transform="translate(-1556.716 -131.036)"/><path class="z" d="M1655.2,234.587c-1.913,1.843-33.237,8.441-35.746,3.843-1.229-2.264-3.352-9.336-5.44-16.741-.474-1.632-.93-3.282-1.386-4.9-.842-3.018-1.65-5.931-2.369-8.423-2.843-9.862.334-10.757,3.089-11.424,9.546-2.334,35.079-4.563,38.5-2.387,2.491,1.579,4,9.757,4.615,18.32.123,1.737.228,3.51.281,5.229C1656.987,226.129,1656.461,233.376,1655.2,234.587Z" transform="translate(-1555.342 -131.105)"/><path class="al" d="M1589.617,201.622s4.043,21.534,19.186,25.087l-3.216-12.544A25.55,25.55,0,0,1,1589.617,201.622Z" transform="translate(-1570.08 -125.105)"/><path class="ar" d="M1616.693,162.857c-7.376,1.111-22.655,3.729-15.852,25.28,4.238,13.421,8.745,28.474,10.28,29.729s43.252-3.769,44.676-5-4.468-38.25-6.509-42.881C1646.438,163.515,1635.937,159.959,1616.693,162.857Z" transform="translate(-1562.893 -155.136)"/><path class="z" d="M1658.131,212.731c-1.421,1.228-42.73,5.861-44.643,5.493-1.193-.211-3.176-6.388-5.51-14.214-.456-1.579-.948-3.211-1.439-4.9-1.088-3.668-2.211-7.493-3.352-11.108-.088-.3-.175-.579-.263-.86a35.461,35.461,0,0,1-1.123-4.878c-2.579-16.338,10.354-18.689,17-19.689,19.25-2.9,28.5.439,31.429,7.388a65.549,65.549,0,0,1,2.053,7.581v.018c.386,1.632.79,3.422,1.193,5.335.79,3.685,1.614,7.739,2.352,11.635.333,1.843.667,3.65.965,5.352C1657.974,206.8,1658.676,212.274,1658.131,212.731Z" transform="translate(-1561.136 -155.366)"/><path class="as" d="M1599.966,213.023c-.6.737-1.07-.386-1.211-.667,0,0-21.76-42.239-.983-51.311.018,0,.018-.018.035-.018.649-.158,1.334-.316,2.053-.439-.6.281-12.649,4.857-9.469,23.064,1.53,8.76,2.9,12.077,5.135,18.315C1598.036,209.022,1600.492,212.356,1599.966,213.023Z" transform="translate(-1570.707 -156.079)"/><path class="ao" d="M1653.337,176.01c-6.335,1.351-28.341,5.563-50.557,4.247a35.424,35.424,0,0,1-1.123-4.878s30.534,1.843,50.487-4.721v.018C1652.53,172.308,1652.933,174.1,1653.337,176.01Z" transform="translate(-1560.992 -148.478)"/><path class="ao" d="M1655.244,209.847c-8.564,1.6-25.3,4.159-42.73,3.58-.474-1.632-.93-3.282-1.386-4.9,8,.246,28.271.351,43.836-3.913C1655.085,206.355,1655.191,208.128,1655.244,209.847Z" transform="translate(-1553.844 -122.843)"/><path class="ao" d="M1654.615,185.69c-7.09,1.457-27.762,5.229-48.82,4.124-.456-1.579-.948-3.211-1.439-4.9,4.475.211,31.061,1.228,49.294-4.58C1653.984,182.181,1654.317,183.988,1654.615,185.69Z" transform="translate(-1558.954 -141.171)"/></g></g><g transform="translate(1107.968 3.877)"><g class="at"><g transform="translate(454.65 535.192)"><path class="au" d="M1492.48,422.1c1.088,1.667,1.58,7.669.316,13.407a14.383,14.383,0,0,1-3.948-1.685,33.024,33.024,0,0,0-5.388-2.72c-.263-.053-1.93-.3-1.9,2.194.035,2.72,6.335,5.826,2.79,11.213a15.1,15.1,0,0,1-2.422,2.79c-4.527.369-13.354-.351-18.741-4.317-4.562-3.352-2.738-7.546-1.825-10.757a11.39,11.39,0,0,0,.386-1.685,3.133,3.133,0,0,0-.1-1.474c-1.018-2.86-2.808-1.878-3.071-1.7a34.231,34.231,0,0,0-3,2.983c-.649.72-1.316,1.509-1.983,2.369-8.844,11.161-24.094,5.633-25.305-.772s13.39-12.758,11.073-15.671c-1.421-1.772-4.475-.526-6.651.7-.807.544-1.6,1.053-2.369,1.544a.244.244,0,0,1-.052.035v-.017c-5.422,3.422-10.371,5.686-13.863,5.44-12.021-.807,8.335-14.039,6.335-15.881-2.018-1.843-21.356,8.915-28.78,5.773-7.44-3.141-6.563-13.74.649-15.671,7.23-1.913,24.919-10.985,23.656-14.477-1.263-3.51-5.966.3-8.265,1.456,0,0-13.775,7.686-19.794-2.509-6-10.213,7.388-17.566,6.405-19.251s-13.653,3.51-22.462-.895c-8.81-4.387-9.02-14.126-2.948-16.917s16.776.913,16.671-1.825c-.123-2.72-19.461-11.564-19.268-18.777.21-7.212,12.652-15.443,24.69-6.7,12.038,8.722,18.408,27.744,20.286,26.445s4.475-16.829,11.828-17.952c7.37-1.123,20.11,2.808,15.951,19.619-4.159,16.829.018,16.144,1.772,16.162,1.772,0,10.932-13.846,20.111-14.741a15.437,15.437,0,0,1,8.528,1.737c5.317,2.773,8.616,8.23,5.37,12.9a15.281,15.281,0,0,1-2.439,2.738c-3.334,3.053-7.563,4.65-10.213,6.212-1.334.79-2.264,1.579-2.492,2.545-.561,2.457,4.458,1.421,9.406.263,1.878-.439,3.738-.9,5.282-1.176.527-.105,1.141-.211,1.825-.333,6.6-1.141,19.391-2.422,19.2,10.389-.21,12.828-21.9,7.739-30.955,9.108-.035,0-3.159,1.106-.474,3.755,2.685,2.685,21.707-2.474,29.832.842,8.107,3.317,3.474,15.565-12.267,20.549-.456.14-.877.263-1.316.4-.018,0-.018,0-.035.017C1477.933,419.779,1490.375,418.9,1492.48,422.1Z" transform="translate(-1367.052 -314.526)"/><path class="av" d="M1388.54,328.691s86.938,71.655,106.138,150.039h-5.38s-8.922-64.345-103.974-150.039c0,0-7.239-5.338-10.859-7.97C1372.52,319.306,1380.717,322.256,1388.54,328.691Z" transform="translate(-1361.675 -310.112)"/><path class="av" d="M1415.945,345.4c-11.543,0-36.374,10.159-31.177,8.729,2.25-.618,23.036-8.348,33.869-6.837" transform="translate(-1354.211 -291.223)"/><path class="av" d="M1428.578,362.942c-11.218,2.718-32.957,18.438-28.242,15.825,2.041-1.13,20.421-13.539,31.3-14.621" transform="translate(-1342.426 -277.98)"/><path class="av" d="M1435.436,371.775c-16.294,1.836-32.959,18.44-28.244,15.827,2.041-1.132,18.421-15.827,31.307-14.623" transform="translate(-1337.365 -271.312)"/><path class="av" d="M1407.3,336.1c-11.3-2.38-39.345,2.509-33.963,2.183,2.329-.142,26.327-2.9,36.615.814" transform="translate(-1362.817 -298.734)"/><path class="av" d="M1398.778,354.469c-1.051-11.5,6.632-33.21,5.682-27.9-.411,2.3-6.21,18.643-3.719,29.292" transform="translate(-1343.178 -306.058)"/><path class="av" d="M1409.986,366.3c4.9-21.2,27.265-30.313,22.813-27.274-3,2.048-19.377,13.681-21.716,27.932" transform="translate(-1334.644 -296.464)"/><path class="av" d="M1412.955,362.13c16.392-14.314,39.854-8.6,34.465-8.739-3.629-.1-23.581.039-33.826,10.217" transform="translate(-1332.403 -285.951)"/><path class="av" d="M1421.224,371.081c16.212-11.582,37.08-4.28,32.184-4.891-3.3-.412-21.491-2.067-31.733,6.295" transform="translate(-1326.161 -276.822)"/><path class="av" d="M1433.735,358.509c-23.252,0-55.3,16.008-47.837,13.828,3.231-.942,34.986-15.767,51.75-10.555" transform="translate(-1353.658 -281.326)"/></g><g class="aw" transform="translate(527.27 570.234)"><path class="ax" d="M1429.17,348.463c-4.071-6-3.843-10.669-1.825-13.968,5.317,2.773,8.616,8.23,5.37,12.9a15.265,15.265,0,0,1-2.439,2.738C1429.942,349.6,1429.574,349.043,1429.17,348.463Z" transform="translate(-1395.225 -334.495)"/><path class="ax" d="M1461.244,397.973c1.088,1.667,1.58,7.669.316,13.407a14.383,14.383,0,0,1-3.948-1.685,33.029,33.029,0,0,0-5.387-2.72c-.263-.053-1.93-.3-1.9,2.194.035,2.72,6.335,5.826,2.79,11.213a15.1,15.1,0,0,1-2.422,2.79c-4.527.369-13.354-.351-18.741-4.317-4.563-3.352-2.738-7.546-1.825-10.757,1.7-.948,2.667-1.579.824-1.7h-.035c-.141,0-.263.018-.4.018a3.138,3.138,0,0,0-.105-1.474c-1.018-2.86-2.808-1.878-3.071-1.7a34.2,34.2,0,0,0-3,2.983c-9.95-1.386-14.477-7.967-9.915-12.143,5.335-4.9,21.515-6.353,22.848-9.178,1.316-2.825-1.421-2.79-1.439-2.79-7.405,1.527-22.743,11.687-26.568,1.825-4.212-10.88,8.722-13,13.389-13.811,4.668-.79,13.2-1.088,11.617-3.475-1.562-2.4-9.318-.6-15-4.563-5.668-3.983-.79-13.372,6.581-15.3a14.128,14.128,0,0,1,7.423.509c-1.334.79-2.264,1.579-2.492,2.544-.561,2.457,4.457,1.421,9.406.263,2.808,1.369,4.9,2.545,5.44,2.334.842-.333,2.492-.719,1.667-3.843,6.6-1.141,19.391-2.422,19.2,10.389-.211,12.828-21.9,7.739-30.955,9.108-.035,0-3.159,1.105-.474,3.755,2.685,2.685,21.707-2.474,29.832.842,8.107,3.317,3.474,15.565-12.266,20.549-.456.14-.877.263-1.316.4-.018,0-.018,0-.035.017C1446.7,395.657,1459.138,394.78,1461.244,397.973Z" transform="translate(-1408.434 -325.446)"/></g><g transform="translate(536.563 536.642)"><path class="i" d="M1436.25,424.687l-.028,0c-.379.021-.74.046-1.137.065-13.605.656-20.706-7.507-15.369-12.394s21.525-6.338,22.848-9.176-1.423-2.783-1.444-2.783c-7.4,1.532-22.732,11.691-26.558,1.816-4.213-10.875,8.727-13,13.391-13.8s13.184-1.091,11.621-3.487-9.334-.593-15.009-4.563-.8-13.367,6.576-15.3,18.433,6.179,19.78,5.656,4.78-1.192-3.255-13.014.705-18.512,6.723-19.751,12.47,10.039,14.291,10.506,1.318-16.071,8.135-26.27,18.8-7.388,21.023-1.864-10.224,17.892-9.531,20.042,7.92-3.787,13.419-3.364,8.123,8.014,2.564,13.94-16.851,5.526-17.131,7.111,12.189,3.45,10.457,13.063-14.6,7.612-14.6,7.612c-2.1-.242-6.835-1.839-6.811,1.23s16.3,5.024,22.444,4.449,9.85,7.369,4.991,11.926-22.9,1.765-23.926,3.766,18.51,6.421,9.45,10.487c-2.634,1.183-7.118.844-12.294-.239l.009.005-.047-.014q-1.116-.234-2.273-.511c-2.036-.333-4.761-.418-5.351,1.358-.965,2.908,12.159,3.645,13.053,8.951s-9.327,13.944-19.359,7.835a33.476,33.476,0,0,0-5.389-2.715c-.255-.053-1.923-.3-1.9,2.2.03,2.711,6.331,5.824,2.785,11.217s-12.015,8.693-14.825,9.041c-8.93,1.1-14.514-13.746-13.805-16.825S1440.372,424.936,1436.25,424.687Z" transform="translate(-1413.73 -315.353)"/><g transform="translate(8.855 7.94)"><path class="au" d="M1469.053,330.406s-46.779,80.322-39.215,146.471l4.164-1.539s-11.5-52.345,37.541-145.852c0,0,4.074-6.2,6.123-9.274C1478.766,318.561,1473.266,323.19,1469.053,330.406Z" transform="translate(-1411.051 -319.877)"/><path class="au" d="M1442.918,348.344c8.934-3.3,31.055-2.546,26.624-2.164-1.918.165-20.216.128-28.165,4.4" transform="translate(-1401.716 -300.291)"/><path class="au" d="M1438.817,362.182c17.994-6.651,47.372-3.431,40.974-2.981-2.769.193-31.583-2.194-43.067,6.635" transform="translate(-1405.229 -291.08)"/><path class="au" d="M1437.377,364.875c9.46-1.1,30.78,4.842,26.384,4.168-1.9-.291-19.677-4.635-28.409-2.36" transform="translate(-1406.265 -286.015)"/><path class="au" d="M1434.648,373.926c13.135-3.241,30.78,4.842,26.384,4.168-1.9-.291-18.782-6.977-28.409-2.36" transform="translate(-1408.324 -279.66)"/><path class="au" d="M1447.636,340.59c8.06-5.073,31.164-9.315,26.9-8.027-1.843.556-21.2,5.289-28.1,11.1" transform="translate(-1397.894 -310.477)"/><path class="au" d="M1449.464,352.576c-2.474-9.2-14.632-23.8-12.379-19.967.976,1.66,10.138,12.651,11.257,21.6" transform="translate(-1405.165 -310.741)"/><path class="au" d="M1450.016,362.8c-9.857-15.007-29.771-15.658-25.456-14.579,2.906.727,18.908,5.043,24.794,15.4" transform="translate(-1414.865 -298.74)"/><path class="au" d="M1450.367,360.888c-16.78-6.388-33.3,4.75-29.17,3.1,2.78-1.113,18.259-6.716,29.1-1.769" transform="translate(-1417.433 -290.427)"/><path class="au" d="M1445.653,370.787c-15.858-4.326-29.92,7.295-26.3,5.421,2.434-1.262,16.037-7.746,26.356-4.206" transform="translate(-1418.776 -282.182)"/></g></g></g></g></g></g></svg>