<?xml version="1.0" standalone="no"?>
<!DOCTYPE svg PUBLIC "-//W3C//DTD SVG 1.1//EN" "http://www.w3.org/Graphics/SVG/1.1/DTD/svg11.dtd" >
<svg xmlns="http://www.w3.org/2000/svg">
<metadata>
<json>
<![CDATA[
{
	"fontFamily": "chutti",
	"majorVersion": 1,
	"minorVersion": 0,
	"version": "Version 1.0",
	"fontId": "chutti",
	"psName": "chutti",
	"subFamily": "Regular",
	"fullName": "chutti",
	"description": "Font generated by IcoMoon."
}
]]>
</json>
</metadata>
<defs>
<font id="chutti" horiz-adv-x="1024">
<font-face units-per-em="1024" ascent="960" descent="-64" />
<missing-glyph horiz-adv-x="1024" />
<glyph unicode="&#x20;" horiz-adv-x="512" d="" />
<glyph unicode="&#xe100;" glyph-name="dashboard" data-tags="dashboard" d="M565.344-32v533.312h426.656v-533.312zM32-32v320h426.672v-320zM32 394.672v533.328h426.672v-533.312zM565.344 608v320h426.656v-320z" />
<glyph unicode="&#xe101;" glyph-name="leave" data-tags="leave" d="M735.76 2.464c-16.486 14.299-38.154 23.012-61.856 23.012-0.692 0-1.382-0.007-2.070-0.022l0.103 0.002c-0.596 0.014-1.298 0.021-2.002 0.021-23.692 0-45.348-8.714-61.938-23.112l0.117 0.099c-25.545-20.707-58.447-33.244-94.278-33.244-0.673 0-1.345 0.004-2.016 0.013l0.102-0.001c-0.55-0.007-1.199-0.011-1.849-0.011-35.841 0-68.754 12.537-94.592 33.464l0.282-0.221c-16.474 14.299-38.13 23.013-61.822 23.013-0.704 0-1.406-0.008-2.107-0.023l0.104 0.002c-0.583 0.013-1.271 0.020-1.96 0.020-23.695 0-45.355-8.714-61.95-23.112l0.117 0.099c-25.557-20.707-58.47-33.244-94.311-33.244-0.661 0-1.322 0.004-1.981 0.013l0.1-0.001c-0.563-0.008-1.228-0.012-1.894-0.012-35.827 0-68.725 12.537-94.547 33.464l0.281-0.22c-16.482 14.299-38.146 23.013-61.845 23.013-0.696 0-1.39-0.008-2.082-0.022l0.103 0.002v56.256c0.554 0.007 1.209 0.012 1.865 0.012 35.841 0 68.754-12.537 94.593-33.465l-0.282 0.221c16.483-14.317 38.157-23.044 61.869-23.044 0.676 0 1.351 0.007 2.024 0.021l-0.101-0.002c0.584-0.013 1.271-0.020 1.96-0.020 23.71 0 45.382 8.727 61.98 23.143l-0.116-0.099c25.557 20.707 58.47 33.243 94.311 33.243 0.65 0 1.3-0.004 1.948-0.012l-0.099 0.001c0.559 0.007 1.22 0.012 1.881 0.012 35.841 0 68.754-12.537 94.593-33.465l-0.282 0.221c16.481-14.318 38.153-23.044 61.864-23.044 0.689 0 1.377 0.007 2.063 0.022l-0.102-0.002c0.572-0.012 1.247-0.020 1.923-0.020 23.712 0 45.385 8.726 61.985 23.142l-0.116-0.099c25.557 20.707 58.47 33.244 94.311 33.244 0.656 0 1.311-0.004 1.965-0.013l-0.099 0.001c0.563 0.008 1.228 0.012 1.894 0.012 35.827 0 68.725-12.537 94.547-33.464l-0.281 0.22c16.492-14.318 38.173-23.044 61.893-23.044 0.679 0 1.357 0.007 2.032 0.021l-0.101-0.002c0.58-0.013 1.264-0.020 1.949-0.020 23.714 0 45.39 8.726 61.992 23.143l-0.116-0.099c25.557 20.707 58.47 33.244 94.311 33.244 0.656 0 1.311-0.004 1.965-0.013l-0.099 0.001v-56.256c-0.579 0.013-1.261 0.020-1.944 0.020-23.71 0-45.385-8.713-61.998-23.112l0.118 0.1c-25.557-20.707-58.47-33.244-94.311-33.244-0.661 0-1.322 0.004-1.981 0.013l0.1-0.001c-0.549-0.007-1.197-0.011-1.847-0.011-35.826 0-68.724 12.537-94.546 33.464l0.281-0.22zM800.448 94.48c-34.624 27.114-78.799 43.479-126.796 43.479-0.603 0-1.206-0.003-1.808-0.008l0.092 0.001c-0.511 0.005-1.116 0.007-1.721 0.007-48.006 0-92.19-16.365-127.277-43.821l0.454 0.342c-16.432-11.568-18.144-12.8-31.456-12.8s-14.992 1.216-31.456 12.8c-34.614 27.114-78.78 43.479-126.769 43.479-0.613 0-1.225-0.003-1.837-0.008l0.094 0.001c-0.507 0.004-1.106 0.007-1.705 0.007-48.001 0-92.179-16.365-127.26-43.821l0.453 0.342c-16.432-11.568-18.144-12.8-31.456-12.8s-15.024 1.216-31.456 12.8c-14.166 10.603-30.262 20.056-47.375 27.63l-1.585 0.626c41.98 25.764 90.438 48.91 141.34 66.879l5.412 1.665c75.379 26.821 162.325 42.32 252.891 42.32 0.272 0 0.543 0 0.815 0h-0.042c3.328 0 6.608-0.080 9.936-0.112l131.040 360c-21.912 5.888-47.071 9.273-73.020 9.28h-2.884l-7.504-0.080-6.592 3.712c-43.23 24.924-93.485 43.876-146.853 54.049l-3.019 0.479-32.624 6.080 11.344 31.2c44.663 119.725 158.032 203.445 290.955 203.445 27.957 0 55.049-3.704 80.813-10.647l-2.168 0.497 13.28 36.448 52.8-19.2-13.248-36.448c65.793-31.251 117.532-83.177 147.751-147.249l0.793-1.871c18.403-38.27 29.155-83.206 29.155-130.653 0-38.010-6.9-74.408-19.517-108.010l0.698 2.119-11.328-31.2-28.928 16.352c-43.227 24.901-93.473 43.85-146.827 54.046l-3.029 0.482-7.424 1.376-5.712 4.896c-18.581 15.979-39.663 29.893-62.392 40.95l-1.736 0.762-125.072-343.76c68.071-6.045 130.847-19.946 190.292-40.911l-5.412 1.663c56.314-19.63 104.772-42.777 150.151-70.472l-3.399 1.928c-18.704-8.207-34.805-17.659-49.632-28.724l0.656 0.468c-16.432-11.568-18.144-12.8-31.456-12.8s-15.008 1.216-31.44 12.784zM201.6 320l-66.496-41.952 3.072 78.56-78.576-3.088 41.952 66.528-69.584 36.608 69.584 36.608-41.952 66.496 78.576-3.072-3.072 78.576 66.496-41.968 36.624 69.568 36.608-69.568 66.496 41.968-3.056-78.576 78.56 3.072-41.952-66.496 69.584-36.608-69.584-36.608 41.952-66.496-78.56 3.072 3.056-78.56-66.496 41.952-36.608-69.6zM135.104 456.656c0-0.005 0-0.010 0-0.016 0-56.946 46.159-103.111 103.103-103.12h0.001c56.943 0 103.104 46.161 103.104 103.104 0 0.011 0 0.023 0 0.034v-0.002c0 0.005 0 0.010 0 0.016 0 56.934-46.154 103.088-103.088 103.088-0.006 0-0.011 0-0.017 0h0.001c-56.934 0-103.088-46.154-103.088-103.088v0z" />
<glyph unicode="&#xe102;" glyph-name="attendance" data-tags="attendance" d="M450.192 376.688c114.935 0.002 208.108 93.176 208.108 208.112 0 114.937-93.175 208.112-208.112 208.112-114.498 0-207.4-92.465-208.108-206.797v-0.067c0.061-115.164 93.048-208.589 208.039-209.36h0.073zM892.8 868.112c-12.196 35.126-45.010 59.89-83.608 59.89-4.588 0-9.093-0.35-13.492-1.024l0.492 0.062c-43.292-5.333-76.481-41.883-76.481-86.184 0-0.11 0-0.219 0.001-0.329v0.017-300.8c-0.077-13.582-2.833-26.5-7.767-38.28l0.247 0.664c-22.56-58.928-45.136-116.592-65.184-175.504-2.611-13.172-14.073-22.964-27.822-22.964-1.685 0-3.336 0.147-4.94 0.429l0.17-0.025h-333.472c-90.256-0.096-151.696-62.768-152.944-154.288v-141.664c0-31.344 10.032-40.112 40.112-40.112h562.896c31.344 0 41.376 10.032 41.376 40.112v130.384c-0.002 0.207-0.003 0.451-0.003 0.696 0 8.706 1.376 17.090 3.923 24.948l-0.16-0.572 112.832 297.12c5.559 13.924 8.783 30.061 8.783 46.951 0 0.684-0.005 1.367-0.016 2.048l0.001-0.103v317.168c0.133 2.090 0.209 4.531 0.209 6.991 0 12.264-1.884 24.089-5.378 35.199l0.225-0.83z" />
<glyph unicode="&#xe103;" glyph-name="timesheet" data-tags="timesheet" d="M405.28 453.328v43.872h213.392v-43.856h373.328v213.328c0 29.452-23.876 53.328-53.328 53.328v0h-266.672v106.672c0 29.452-23.876 53.328-53.328 53.328v0h-213.392c-29.432-0.027-53.28-23.893-53.28-53.328 0 0 0 0 0 0v0-106.672h-266.72c-29.432-0.027-53.28-23.893-53.28-53.328 0 0 0 0 0 0v0-213.344zM405.28 826.656h213.392v-106.656h-213.392zM992 373.328v-293.328c0-29.452-23.876-53.328-53.328-53.328v0h-853.392c-29.432 0.027-53.28 23.893-53.28 53.328 0 0 0 0 0 0v0 293.328h373.28v-42.576h213.392v42.576z" />
<glyph unicode="&#xe104;" glyph-name="attendance1" data-tags="attendance" d="M279.744 874.064h474.608v-43.2c1.203-22.893 20.059-41.001 43.144-41.001s41.941 18.108 43.14 40.894l0.004 0.107v43.2h21.488c0.019 0 0.041 0 0.064 0 59.577 0 107.877-48.283 107.904-107.853v-107.875h-906.080v107.872c0.055 59.579 48.365 107.856 107.952 107.856 0 0 0 0 0 0h21.488v-43.2c1.203-22.893 20.059-41.001 43.144-41.001s41.941 18.108 43.14 40.894l0.004 0.107v43.2zM64.016 75.824c0.055-59.561 48.351-107.824 107.92-107.824 0.011 0 0.023 0 0.034 0h690.174c0.005 0 0.010 0 0.016 0 59.572 0 107.872 48.261 107.936 107.818v560.982h-906.080v-560.976zM204.24 496.544c0.018 17.869 14.499 32.35 32.366 32.368h43.202c17.869-0.018 32.35-14.499 32.368-32.366v-43.202c-0.018-17.869-14.499-32.35-32.366-32.368h-43.202c-17.869 0.018-32.35 14.499-32.368 32.366v43.202zM376.832 496.544c0.018 17.869 14.499 32.35 32.366 32.368h43.202c17.869-0.018 32.35-14.499 32.368-32.366v-43.202c-0.018-17.869-14.499-32.35-32.366-32.368h-43.202c-17.869 0.018-32.35 14.499-32.368 32.366v43.202zM549.408 496.544c0.018 17.869 14.499 32.35 32.366 32.368h43.202c17.869-0.018 32.35-14.499 32.368-32.366v-43.202c-0.018-17.869-14.499-32.35-32.366-32.368h-43.202c-17.869 0.018-32.35 14.499-32.368 32.366v43.202zM722 496.544c0.018 17.869 14.499 32.35 32.366 32.368h43.202c17.869-0.018 32.35-14.499 32.368-32.366v-43.202c-0.018-17.869-14.499-32.35-32.366-32.368h-43.202c-17.869 0.018-32.35 14.499-32.368 32.366v43.202zM204.24 323.952c0.018 17.869 14.499 32.35 32.366 32.368h43.202c17.869-0.018 32.35-14.499 32.368-32.366v-43.202c-0.018-17.869-14.499-32.35-32.366-32.368h-43.202c-17.869 0.018-32.35 14.499-32.368 32.366v43.202zM376.832 323.952c0.018 17.869 14.499 32.35 32.366 32.368h43.202c17.869-0.018 32.35-14.499 32.368-32.366v-43.202c-0.018-17.869-14.499-32.35-32.366-32.368h-43.202c-17.869 0.018-32.35 14.499-32.368 32.366v43.202zM549.408 323.952c0.018 17.869 14.499 32.35 32.366 32.368h43.202c17.869-0.018 32.35-14.499 32.368-32.366v-43.202c-0.018-17.869-14.499-32.35-32.366-32.368h-43.202c-17.869 0.018-32.35 14.499-32.368 32.366v43.202zM722 323.952c0.018 17.869 14.499 32.35 32.366 32.368h43.202c17.869-0.018 32.35-14.499 32.368-32.366v-43.202c-0.018-17.869-14.499-32.35-32.366-32.368h-43.202c-17.869 0.018-32.35 14.499-32.368 32.366v43.202zM204.24 151.36c0.018 17.869 14.499 32.35 32.366 32.368h43.202c17.869-0.018 32.35-14.499 32.368-32.366v-43.202c-0.018-17.869-14.499-32.35-32.366-32.368h-43.202c-17.869 0.018-32.35 14.499-32.368 32.366v43.202zM376.832 151.36c0.018 17.869 14.499 32.35 32.366 32.368h43.202c17.869-0.018 32.35-14.499 32.368-32.366v-43.202c-0.018-17.869-14.499-32.35-32.366-32.368h-43.202c-17.869 0.018-32.35 14.499-32.368 32.366v43.202zM215.024 906.448c0 11.929 9.671 21.6 21.6 21.6s21.6-9.671 21.6-21.6v0-75.536c0-11.929-9.671-21.6-21.6-21.6s-21.6 9.671-21.6 21.6v0 75.536zM775.92 906.448c0 11.929 9.671 21.6 21.6 21.6s21.6-9.671 21.6-21.6v0-75.536c0-11.929-9.671-21.6-21.6-21.6s-21.6 9.671-21.6 21.6v0 75.536z" />
<glyph unicode="&#xe105;" glyph-name="support" data-tags="support" d="M992 448c-0.071 265.043-214.947 479.875-480 479.875-265.097 0-480-214.903-480-480 0-89.937 24.735-174.096 67.773-246.047l-1.213 2.188-64.8-234.24 234.256 64.784c69.772-41.826 153.942-66.561 243.888-66.561 265.116 0 480.042 214.892 480.096 479.996v0.005zM438.4 559.712h-73.6c0 0.003 0 0.007 0 0.011 0 81.358 65.954 147.312 147.312 147.312s147.312-65.954 147.312-147.312c0-42.994-18.418-81.685-47.795-108.616l-0.109-0.099-62.72-57.28v-57.44h-73.6v89.872l86.4 79.184c14.766 13.391 24.001 32.65 24.001 54.066 0 0.118 0 0.235-0.001 0.352v-0.018c0 40.679-32.977 73.656-73.656 73.656s-73.656-32.977-73.656-73.656v0zM475.2 262.624h73.6v-73.6h-73.6z" />
<glyph unicode="&#xe106;" glyph-name="quick_apply" data-tags="quick_apply" d="M508.048-28.992c-9.252 4.721-15.477 14.18-15.477 25.093 0 1.466 0.112 2.906 0.329 4.312l-0.020-0.157c9.28 62.688 11.856 84.16 8 106.288 68.463 38.54 126.537 76.758 181.824 118.473l-4.064-2.937c13.968-25.216 3.2-104.688-58.48-166.288l-79.536-79.536c-5.086-5.091-12.114-8.241-19.878-8.241-4.613 0-8.967 1.112-12.808 3.082l0.158-0.074zM152 87.632c-5.095 5.079-8.247 12.104-8.247 19.865 0 4.462 1.042 8.681 2.896 12.427l-0.073-0.164c18.192 37.584 58.768 101.296 148.608 191.104 26.848 26.848 84.016 45.088 104.32 24.736v0c19.28-19.328 4.8-74.736-24.816-104.288-90.896-90.896-153.808-131.28-190.56-149.12-3.585-1.781-7.809-2.823-12.275-2.823-7.768 0-14.799 3.152-19.885 8.247v0zM346.784 110.992l-9.312 9.312c23.392 19.904 48.912 43.088 77.040 71.248 2 2 2.944 4 4.8 6l46.4-46.4c-48.608-27.072-71.536-37.872-86.096-45.376-3.736-1.962-8.163-3.113-12.859-3.113-7.771 0-14.805 3.153-19.893 8.249v0zM450.384 246.032c17.6 43.296 22.4 95.92-11.104 129.36s-86.016 28.8-129.392 11.2l-63.488 63.376c127.744 212.432 289.424 363.776 458.288 433.056 11.949-62.34 42.040-116.259 84.491-157.533l0.069-0.067c42.242-43.289 97.625-73.58 159.695-84.417l1.761-0.255c-80.96-206.528-271.312-361.76-434.8-460.304zM550.624 685.664c-25.561-25.493-41.375-60.748-41.375-99.696 0-77.762 63.038-140.8 140.8-140.8s140.8 63.038 140.8 140.8c0 77.756-63.030 140.791-140.784 140.8h-0.001c-0.014 0-0.030 0-0.047 0-38.813 0-73.959-15.705-99.428-41.107l0.003 0.003zM177.392 280.336c-5.102 5.090-8.258 12.128-8.258 19.903 0 4.591 1.101 8.925 3.052 12.753l-0.074-0.159c4.288 8.48 19.328 40.288 45.040 86.816l44.24-44.288c-2-1.824-4.032-2.768-6.048-4.8-28.096-28.096-51.2-53.632-71.104-77.184zM35.776 440c-2.377 4.040-3.782 8.9-3.782 14.087 0 7.755 3.138 14.777 8.214 19.865l79.583 79.647c67.648 67.648 146.464 76.192 170.336 60.8-39.602-51.455-78.118-109.486-112.54-170.146l-3.892-7.454c-25.472 6.512-63.28 1.6-106.288-9.856-2.189-0.612-4.703-0.963-7.298-0.963-10.338 0-19.374 5.577-24.262 13.887l-0.072 0.132zM590.4 526.528c-15.325 15.292-24.806 36.435-24.806 59.792 0 46.648 37.816 84.464 84.464 84.464s84.464-37.816 84.464-84.464c0-46.646-37.812-84.461-84.458-84.464v0c-23.292 0.004-44.382 9.43-59.666 24.674l0.002-0.002zM829.024 765.2c-36.89 35.609-62.181 83.016-69.788 136.13l-0.148 1.262c49.58 16.063 106.625 25.323 165.834 25.323 13.887 0 27.654-0.509 41.285-1.511l-1.823 0.107c13.924-1.004 24.977-12.035 26.010-25.859l0.006-0.093c1.049-13.086 1.648-28.332 1.648-43.718 0-57.529-8.364-113.104-23.943-165.576l1.047 4.11c-55.406 7.031-103.875 32.414-140.069 69.763l-0.059 0.061z" />
<glyph unicode="&#xe107;" glyph-name="leave_bank" data-tags="leave_bank" d="M885.328 928h-746.656c-58.844-0.172-106.5-47.828-106.672-106.655v-746.673c0.172-58.844 47.828-106.5 106.655-106.672h746.673c58.844 0.172 106.5 47.828 106.672 106.655v746.673c-0.172 58.844-47.828 106.5-106.655 106.672h-0.017zM352 181.328h-106.672v373.344h106.672zM565.328 181.328h-106.656v533.344h106.672zM778.656 181.328h-106.656v213.344h106.672z" />
<glyph unicode="&#xe108;" glyph-name="collapse" data-tags="collapse" d="M57.936-22.064c-6.143 6.202-9.938 14.738-9.938 24.16s3.795 17.959 9.941 24.163l289.597 289.773h-176.496c-18.819 0.027-34.064 15.289-34.064 34.112 0 0.039 0 0.079 0 0.118v-0.006c0 18.813 15.251 34.064 34.064 34.064v0h259.056c0.029 0 0.062 0 0.096 0 18.82 0 34.078-15.247 34.096-34.062v-259.058c0-0.024 0-0.052 0-0.080 0-18.857-15.287-34.144-34.144-34.144-0.017 0-0.034 0-0.051 0h0.003c-18.819 0.027-34.064 15.289-34.064 34.112 0 0.039 0 0.079 0 0.118v-0.006 176.64l-289.744-289.904c-6.236-6.101-14.77-9.875-24.186-9.904h-0.006c-9.41 0.038-17.932 3.81-24.166 9.91l0.006-0.006zM580.128 537.344l-13.568 258.752c-0.024 0.479-0.038 1.041-0.038 1.605 0 18.281 14.293 33.224 32.314 34.262l0.092 0.004c0.546 0.031 1.184 0.049 1.827 0.049 18.178 0 33.034-14.226 34.041-32.152l0.004-0.089 8.88-169.344 287.632 287.632c6.211 6.142 14.754 9.936 24.184 9.936s17.973-3.794 24.187-9.939l-0.003 0.003c6.143-6.202 9.938-14.738 9.938-24.16s-3.795-17.959-9.941-24.163l-292.797-292.525 184.32 9.6c0.544 0.031 1.18 0.049 1.821 0.049 18.253 0 33.162-14.316 34.112-32.332l0.004-0.085c0.025-0.493 0.040-1.070 0.040-1.651 0-18.307-14.328-33.268-32.382-34.281l-0.090-0.004-258.688-13.408c-0.688 0-1.248 0-1.872 0-18.149 0.058-32.964 14.253-34.012 32.147l-0.004 0.093z" />
<glyph unicode="&#xe109;" glyph-name="expand" data-tags="expand" d="M955.44 928h-259.056c-0.22 0.005-0.479 0.008-0.739 0.008-18.866 0-34.16-15.294-34.16-34.16s15.294-34.16 34.16-34.16c0.26 0 0.519 0.003 0.778 0.009l-0.039-0.001h224.912v-224.912c0.414-18.545 15.546-33.421 34.152-33.421s33.738 14.875 34.151 33.382l0.001 0.039v259.056c0 18.866-15.294 34.16-34.16 34.16v0zM341.216 36.32h-224.912v224.896c0.005 0.22 0.008 0.479 0.008 0.739 0 18.866-15.294 34.16-34.16 34.16s-34.16-15.294-34.16-34.16c0-0.26 0.003-0.519 0.009-0.778l-0.001 0.039v-259.056c0-18.866 15.294-34.16 34.16-34.16v0h259.056c18.545 0.414 33.421 15.546 33.421 34.152s-14.875 33.738-33.382 34.151l-0.039 0.001zM979.6 918c-6.181 6.18-14.72 10.002-24.152 10.002s-17.971-3.822-24.152-10.003l-302.24-302.24c-5.965-6.143-9.642-14.535-9.642-23.786 0-18.866 15.294-34.16 34.16-34.16 9.251 0 17.644 3.678 23.795 9.65l302.232 302.232c6.18 6.181 10.002 14.72 10.002 24.152s-3.822 17.971-10.003 24.152v0zM408.544 328.544c-6.181 6.18-14.72 10.002-24.152 10.002s-17.971-3.822-24.152-10.003l-302.24-302.24c-6.401-6.216-10.374-14.903-10.374-24.518 0-18.866 15.294-34.16 34.16-34.16 9.615 0 18.302 3.972 24.51 10.365l302.248 302.248c6.184 6.18 10.009 14.719 10.009 24.152s-3.825 17.972-10.009 24.152v0z" />
<glyph unicode="&#xe10a;" glyph-name="filter" data-tags="filter" d="M405.328 128h213.344v106.672h-213.344zM32 768v-106.672h960v106.672zM192 394.672h640v106.656h-640z" />
<glyph unicode="&#xe10b;" glyph-name="date_picker" data-tags="date_picker" d="M749.344 832v96h-93.408v-96h-280v96h-93.36v-96h-186.64v-864h840v864zM876.016 28h-720v516h720zM235.968 448h93.36v-96h-93.36v96zM469.312 448h93.36v-96h-93.36v96zM702.656 448h93.36v-96h-93.36v96z" />
<glyph unicode="&#xe10c;" glyph-name="arrow_thick_left" data-tags="arrow_thick_left" d="M716.704-31.984l-476.688 480 476.688 480 78.208-77.664-399.632-402.336 399.632-402.352z" />
<glyph unicode="&#xe10d;" glyph-name="arrow_thick_right" data-tags="arrow_thick_right" d="M318.208-31.984l476.688 480-476.688 480-78.208-77.664 399.632-402.32-399.632-402.352z" />
<glyph unicode="&#xe10e;" glyph-name="arrow_thin_left" data-tags="arrow_thin_left" d="M716.8-32l-476.8 480 476.8 480 55.056-54.72-422.4-425.248 422.4-425.296z" />
<glyph unicode="&#xe10f;" glyph-name="arrow_thin_right" data-tags="arrow_thin_right" d="M295.072-32l476.8 480-476.8 480-55.056-54.72 422.4-425.248-422.4-425.296z" />
<glyph unicode="&#xe110;" glyph-name="hold" data-tags="hold" d="M857.632 793.36c-19.43 20.626-46.688 33.692-77.002 34.429l-0.134 0.003h-4.592c-7.513-0.102-14.787-0.797-21.873-2.039l0.817 0.119c-4.129 56.254-50.008 100.539-106.567 102.125l-0.153 0.003h-5.44c-0.644 0.013-1.404 0.021-2.166 0.021-24.512 0-47.216-7.736-65.806-20.899l0.356 0.239c-18.62 12.91-41.693 20.624-66.568 20.624s-47.949-7.714-66.959-20.88l0.391 0.256c-17.48 12.863-39.425 20.6-63.175 20.64h-6.953c-59.437-0.048-107.835-47.242-109.819-106.202l-0.005-0.182c-0.085-1.171-0.134-2.536-0.134-3.913 0-0.875 0.020-1.745 0.059-2.61l-0.004 0.123v-159.792c-76.98-16.32-133.907-83.712-133.907-164.4 0-3.377 0.1-6.731 0.296-10.059l-0.022 0.459c0-135.472 117.088-322.176 141.248-359.2 8.249-12.457 22.203-20.56 38.049-20.56 0.022 0 0.044 0 0.066 0h434.045c12.617 0.047 24.033 5.147 32.339 13.379l-0.003-0.003c61.019 60.659 102.301 141.111 113.407 230.914l0.193 1.918v366.928c0.028 0.928 0.044 2.019 0.044 3.115 0 29.244-11.434 55.818-30.075 75.495l0.047-0.050zM308.832 402.080c25.345 0.036 45.886 20.55 45.968 45.88v0.008l-0.080 368c-0.062 0.56-0.098 1.21-0.098 1.867 0 4.352 1.554 8.34 4.137 11.442l-0.023-0.029c3.016 3.564 7.337 5.943 12.216 6.395l0.072 0.005h5.936c0.614 0.079 1.325 0.124 2.046 0.124 4.247 0 8.127-1.568 11.094-4.158l-0.020 0.017c3.595-2.89 6.033-7.093 6.584-11.869l0.008-0.083c0.034-0.572 0.054-1.241 0.054-1.915 0-1.061-0.049-2.11-0.144-3.146l0.010 0.133v-267.44c0-25.387 20.581-45.968 45.968-45.968s45.968 20.581 45.968 45.968v267.536c0 11.518 9.338 20.856 20.856 20.856s20.856-9.338 20.856-20.856v0-267.44c0-25.41 20.598-46.008 46.008-46.008s46.008 20.598 46.008 46.008v0 267.44c0 11.518 9.338 20.856 20.856 20.856s20.856-9.338 20.856-20.856v0-267.44c0-25.41 20.598-46.008 46.008-46.008s46.008 20.598 46.008 46.008v0 167.312c0 11.518 9.338 20.856 20.856 20.856s20.856-9.338 20.856-20.856v0l-0.752-365.888c-8.628-60.734-35.308-114.074-74.35-155.673l0.142 0.153h-389.056c-55.506 82.322-95.145 179.995-112.104 285.256l-0.552 4.152c-0.219 2.176-0.344 4.704-0.344 7.26 0 29.771 16.939 55.585 41.705 68.33l0.431 0.202v-110.56c0.1-25.328 20.633-45.827 45.964-45.872h0.004zM742.464 60.016h-433.84c-25.41 0-46.008-20.598-46.008-46.008s20.598-46.008 46.008-46.008v0h433.84c25.41 0 46.008 20.598 46.008 46.008s-20.598 46.008-46.008 46.008v0z" />
<glyph unicode="&#xe111;" glyph-name="cancel" data-tags="cancel" d="M590.976 447.952l283.856 300.144c9.207 10.386 14.83 24.132 14.83 39.191 0 32.695-26.505 59.2-59.2 59.2-16.186 0-30.854-6.496-41.541-17.022l0.007 0.007-279.424-295.408-279.312 295.408c-10.68 10.519-25.348 17.015-41.534 17.015-32.695 0-59.2-26.505-59.2-59.2 0-15.059 5.623-28.805 14.884-39.253l-0.054 0.062 283.872-300.144-283.888-300.24c-8.878-10.293-14.285-23.798-14.285-38.566 0-32.695 26.505-59.2 59.2-59.2 15.919 0 30.37 6.283 41.009 16.504l-0.020-0.019 279.328 295.408 279.424-295.296c10.619-10.203 25.071-16.486 40.989-16.486 32.695 0 59.2 26.505 59.2 59.2 0 14.768-5.407 28.272-14.35 38.642l0.065-0.077z" />
<glyph unicode="&#xe112;" glyph-name="tick" data-tags="tick" d="M395.296 142.848c-12.999 0.010-24.895 4.728-34.074 12.542l0.074-0.062-230.656 195.072c-11.429 9.716-18.632 24.105-18.632 40.176 0 29.068 23.564 52.632 52.632 52.632 12.997 0 24.893-4.711 34.075-12.518l-0.075 0.062 191.536-161.888 429.856 481.6c9.712 11.175 23.948 18.2 39.825 18.2 29.090 0 52.672-23.582 52.672-52.672 0-13.763-5.279-26.294-13.922-35.677l0.034 0.037-464-519.84c-9.686-10.859-23.718-17.664-39.34-17.664-0.001 0-0.003 0-0.004 0v0z" />
<glyph unicode="&#xe113;" glyph-name="lock" data-tags="lock" d="M716.576 0h-406.176c-83.020 0.109-150.291 67.38-150.4 150.39v268.298c0.109 83.020 67.38 150.291 150.39 150.4h7.594v119.040c1.988 106.486 88.778 192.046 195.552 192.046s193.565-85.561 195.549-191.861l0.003-0.186v-119.008h7.456c83.020-0.109 150.291-67.38 150.4-150.39v-268.33c-0.109-83.008-67.362-150.273-150.356-150.4h-0.012zM608.832 688.128c-2.046 51.039-43.918 91.639-95.272 91.639s-93.226-40.601-95.266-91.454l-0.006-0.185v-119.008h190.544zM766.72 418.688c-0.036 27.679-22.465 50.108-50.14 50.144h-406.18c-27.679-0.036-50.108-22.465-50.144-50.14v-268.292c0.036-27.679 22.465-50.108 50.14-50.144h406.164c27.686 0.027 50.124 22.459 50.16 50.141v0.003zM563.648 285.888c0 27.694-22.45 50.144-50.144 50.144s-50.144-22.45-50.144-50.144c0-27.694 22.45-50.144 50.144-50.144v0c0 0 0 0 0 0 27.666 0 50.098 22.405 50.144 50.060v0.004z" />
<glyph unicode="&#xe114;" glyph-name="edit_outline" data-tags="edit_outline" d="M80.928 220l-0.928-181.008c-0.001-0.094-0.001-0.206-0.001-0.317 0-10.697 4.274-20.396 11.208-27.482l-0.007 0.007c6.758-6.914 16.178-11.201 26.6-11.201 0.11 0 0.219 0 0.329 0.001h-0.017l180.080 0.928c0.093-0.001 0.202-0.001 0.312-0.001 10.422 0 19.842 4.287 26.593 11.194l621.911 621.895c6.889 7.062 11.138 16.727 11.138 27.384s-4.249 20.322-11.146 27.392l0.008-0.008-178.224 180.016c-7.062 6.889-16.727 11.138-27.384 11.138s-20.322-4.249-27.392-11.146l0.008 0.008-124.384-125.312-497.568-496.576c-6.637-7.046-10.832-16.456-11.198-26.841l-0.002-0.071zM741.856 787.2l125.344-125.344-70.544-70.544-125.312 125.312zM157.968 203.296l458.56 458.56 125.312-125.312-458.56-457.6-126.24-0.928 0.928 125.312z" />
<glyph unicode="&#xe115;" glyph-name="edit_filled" data-tags="edit_filled" d="M192 249.184v-136.512h136.512l402.592 402.624-136.512 136.512zM836.672 620.848c6.577 6.564 10.646 15.639 10.646 25.664s-4.069 19.1-10.646 25.663l-85.185 85.185c-6.564 6.577-15.639 10.646-25.664 10.646s-19.1-4.069-25.663-10.646l-66.561-66.609 136.512-136.512 66.608 66.608z" />
<glyph unicode="&#xe116;" glyph-name="delete_filled" data-tags="delete_filled" d="M445.232 813.952h138.576v-23.312h50.048v26.576c-0.018 25.825-20.944 46.757-46.765 46.784h-145.155c-25.813-0.045-46.725-20.968-46.752-46.781v-26.579h50.048zM749.408 592.352h-469.792c-0.002 0-0.005 0-0.008 0-12.168 0-22.032-9.864-22.032-22.032 0-0.625 0.026-1.244 0.077-1.856l-0.005 0.080 39.28-485.664c2.221-26.952 24.636-47.986 51.967-48h331.233c27.332 0.014 49.747 21.048 51.956 47.812l0.012 0.188 39.232 485.664c0.046 0.532 0.072 1.151 0.072 1.776 0 12.168-9.864 22.032-22.032 22.032-0.003 0-0.005 0-0.008 0v0zM393.36 86.752c-0.528 0-1.056 0-1.6 0-13.266 0.018-24.112 10.356-24.94 23.415l-0.004 0.073-24.608 398.704c-0.026 0.424-0.040 0.919-0.040 1.417 0 13.82 11.204 25.024 25.024 25.024 13.233 0 24.066-10.271 24.964-23.276l0.004-0.078 24.64-398.88c0.030-0.459 0.047-0.996 0.047-1.536 0-13.274-10.335-24.134-23.398-24.972l-0.073-0.004zM539.808 111.728c0-13.82-11.204-25.024-25.024-25.024s-25.024 11.204-25.024 25.024v0 398.64c0 13.82 11.204 25.024 25.024 25.024s25.024-11.204 25.024-25.024v0zM686.784 508.96l-23.504-398.704c-0.8-13.165-11.666-23.541-24.959-23.552h-1.489c-13.17 0.802-23.547 11.68-23.547 24.98 0 0.516 0.016 1.029 0.046 1.538l-0.003-0.070 23.488 398.704c0.8 13.174 11.68 23.555 24.984 23.555 13.822 0 25.027-11.205 25.027-25.027 0-0.518-0.016-1.032-0.047-1.542l0.003 0.070zM835.952 669.568l-16.432 49.264c-4.348 12.743-16.216 21.744-30.185 21.744-0.002 0-0.005 0-0.007 0h-549.632c-0.001 0-0.001 0-0.002 0-13.967 0-25.831-9.002-30.107-21.52l-0.066-0.224-16.432-49.264c-0.671-1.948-1.058-4.193-1.058-6.528 0-11.406 9.238-20.655 20.64-20.672h603.698c4.058 0.007 7.836 1.199 11.008 3.248l-0.080-0.048c5.869 3.7 9.711 10.147 9.711 17.491 0 2.328-0.386 4.566-1.098 6.654l0.043-0.145z" />
<glyph unicode="&#xe117;" glyph-name="search" data-tags="search" d="M960 96.88l-251.6 222.864c36.667 54.43 58.527 121.477 58.527 193.63 0 193.061-156.507 349.568-349.568 349.568s-349.568-156.507-349.568-349.568c0-193.061 156.507-349.568 349.568-349.568 90.785 0 173.487 34.608 235.633 91.351l-0.272-0.245 250.656-222.016zM165.552 505.92c0 141.694 114.866 256.56 256.56 256.56s256.56-114.866 256.56-256.56c0-141.694-114.866-256.56-256.56-256.56v0c-141.625 0.173-256.387 114.936-256.56 256.544v0.016z" />
<glyph unicode="&#xe118;" glyph-name="notifications" data-tags="notifications" d="M505.024 0c49.785 0.154 90.102 40.471 90.256 90.241v0.015h-180.512c0-0.010 0-0.021 0-0.032 0-49.829 40.395-90.224 90.224-90.224 0.011 0 0.022 0 0.034 0h-0.002zM775.792 270.768v225.6c0 138.544-74.016 254.528-203.072 285.216v30.72c0 37.387-30.309 67.696-67.696 67.696s-67.696-30.309-67.696-67.696v0-30.688c-129.52-30.688-203.072-146.208-203.072-285.2v-225.6l-90.256-90.304v-45.136h722.048v45.136z" />
<glyph unicode="&#xe119;" glyph-name="time" data-tags="time" d="M80 439.984c0 0.076 0 0.166 0 0.256 0 242.802 196.779 439.643 439.558 439.744h0.010c0.062 0 0.135 0 0.208 0 243.050 0 440.096-196.967 440.224-439.987v-0.013c-0.137-243.035-197.186-440-440.24-440-0.062 0-0.124 0-0.186 0h0.010c-242.799 0.109-439.584 196.962-439.584 439.776 0 0.079 0 0.158 0 0.236v-0.012zM168 439.984c0-0.038 0-0.083 0-0.128 0-194.334 157.538-351.872 351.872-351.872 0.045 0 0.090 0 0.135 0h-0.007c0.038 0 0.083 0 0.128 0 194.334 0 351.872 157.538 351.872 351.872 0 0.045 0 0.090 0 0.135v-0.007c0 0.029 0 0.062 0 0.096 0 194.351-157.553 351.904-351.904 351.904-0.034 0-0.068 0-0.102 0h0.006c-0.029 0-0.062 0-0.096 0-194.351 0-351.904-157.553-351.904-351.904 0-0.034 0-0.068 0-0.102v0.006zM475.984 396v264h66v-231.008l198-117.456-32.992-54.128z" />
<glyph unicode="&#xe11a;" glyph-name="date_time" data-tags="date_time" d="M144.4 158.096v413.776h576.72v-80.656c2.012 0.528 4.321 0.831 6.701 0.831 0.457 0 0.911-0.011 1.363-0.033l-0.064 0.002c0.824 0.011 1.797 0.017 2.772 0.017 13.272 0 26.27-1.17 38.898-3.414l-1.334 0.196v313.744h-150.016v77.44h-74.16v-77.44h-225.040v77.44h-75.008v-77.44h-149.232v-692.8h369.424c-5.754 13.849-10.513 30.099-13.501 46.961l-0.211 1.439zM208.192 494.72h74.864v-76.976h-74.864v76.976zM395.328 494.72h74.864v-76.976h-74.864v76.976zM582.448 494.72h74.864v-76.976h-74.864v76.976zM728.928 419.424h-0.4c-115.85-0.114-209.72-94.055-209.72-209.92 0-115.936 93.984-209.92 209.92-209.92s209.92 93.984 209.92 209.92c0 115.865-93.87 209.806-209.709 209.92h-0.011zM729.168 41.536h-0.64c-92.567 0.182-167.536 75.264-167.536 167.856 0 92.704 75.152 167.856 167.856 167.856s167.856-75.152 167.856-167.856c0-92.592-74.969-167.673-167.518-167.856h-0.018zM739.184 314.496h-31.472v-126l110.176-66.144 16.128 25.808-94.832 56.144z" />
<glyph unicode="&#xe11b;" glyph-name="probation" data-tags="probation" d="M870.688 880h-733.36c-40.498 0-73.328-32.83-73.328-73.328v0-586.656c0-0.010 0-0.021 0-0.032 0-30.371 24.621-54.992 54.992-54.992 0 0 0 0 0 0h267.68l-52.368-130.944c-1.801-3.212-2.862-7.049-2.862-11.134 0-12.751 10.337-23.088 23.088-23.088 0.998 0 1.98 0.063 2.945 0.186l-0.114-0.012h293.328c0.85-0.111 1.833-0.174 2.83-0.174 12.751 0 23.088 10.337 23.088 23.088 0 4.085-1.061 7.922-2.922 11.251l0.060-0.117-52.4 130.944h267.68c30.373 0.009 54.992 24.634 54.992 55.008 0 0.006 0 0.011 0 0.017v-0.001 586.656c-0.018 40.491-32.837 73.31-73.326 73.328h-0.002zM504 212.176c-21.47 0.027-38.864 17.438-38.864 38.912 0 21.491 17.421 38.912 38.912 38.912s38.912-17.421 38.912-38.912v0c-0.009-21.492-17.434-38.912-38.928-38.912-0.011 0-0.023 0-0.034 0h0.002zM838.848 348.304h-669.712v426.544h669.712z" />
<glyph unicode="&#xe11c;" glyph-name="confirmed" data-tags="confirmed" d="M520 880c-243.005 0-440-196.995-440-440s196.995-440 440-440c243.005 0 440 196.995 440 440v0c-0.282 242.892-197.108 439.718-439.973 440h-0.027zM772.656 514.32l-276.432-276.432c-11.26-11.261-26.817-18.226-44-18.226s-32.74 6.965-44 18.226l-140.88 140.88c-11.261 11.261-18.225 26.817-18.225 44 0 34.366 27.859 62.225 62.225 62.225 17.183 0 32.739-6.965 44-18.225l96.88-96.88 232.416 232.432c11.261 11.261 26.817 18.225 44 18.225 34.366 0 62.225-27.859 62.225-62.225 0-17.183-6.965-32.739-18.225-44v0z" />
<glyph unicode="&#xe11d;" glyph-name="holidays" data-tags="holidays" d="M775.136 336.048c53.019 0 96 42.981 96 96v0c0 0.009 0 0.019 0 0.029 0 2.952-1.367 5.585-3.502 7.301l-0.018 0.014-346.16 277.216c-1.593 1.285-3.642 2.062-5.872 2.062s-4.279-0.777-5.89-2.076l0.018 0.014-346.192-277.296c-2.154-1.733-3.52-4.368-3.52-7.322 0-0.008 0-0.015 0-0.023v0.001c0-0.030 0-0.065 0-0.1 0-52.949 42.923-95.872 95.872-95.872 27.864 0 52.952 11.887 70.468 30.866l0.060 0.065c4.015 4.34 9.739 7.048 16.096 7.048s12.081-2.708 16.083-7.033l0.013-0.014c17.553-18.993 42.592-30.846 70.4-30.846s52.847 11.853 70.341 30.782l0.059 0.064c4.015 4.34 9.739 7.048 16.096 7.048s12.081-2.708 16.083-7.033l0.013-0.014c17.553-18.993 42.592-30.846 70.4-30.846s52.847 11.853 70.341 30.782l0.059 0.064c4.015 4.34 9.739 7.048 16.096 7.048s12.081-2.708 16.083-7.033l0.013-0.014c17.619-18.993 42.702-30.849 70.554-30.88h0.006zM546.832 896.688c0 0.002 0 0.005 0 0.008 0 17.293-14.019 31.312-31.312 31.312-3.543 0-6.949-0.588-10.124-1.673l0.22 0.065-154.928-51.68c-12.544-4.275-21.407-15.954-21.407-29.704s8.862-25.429 21.186-29.639l0.22-0.065 133.6-44.528v-18.512h62.624v144.416zM813.728 297.664c-11.572-3.467-24.869-5.462-38.632-5.462-32.813 0-62.977 11.342-86.786 30.319l0.282-0.217c-23.537-18.756-53.708-30.095-86.528-30.095s-62.991 11.339-86.811 30.312l0.283-0.218c-23.539-18.757-53.713-30.097-86.536-30.097s-62.997 11.339-86.819 30.314l0.283-0.218c-23.527-18.76-53.691-30.102-86.504-30.102-13.763 0-27.060 1.995-39.618 5.713l0.986-0.25-42.8-293.84c-0.208-1.356-0.327-2.92-0.327-4.512 0-17.293 14.019-31.312 31.312-31.312 0.002 0 0.005 0 0.007 0h192.16v247.632c0 17.293 14.019 31.312 31.312 31.312h173.072c17.293 0 31.312-14.019 31.312-31.312v0-247.648h192.16c0.002 0 0.004 0 0.007 0 17.293 0 31.312 14.019 31.312 31.312 0 1.592-0.119 3.156-0.348 4.684l0.021-0.172zM460.304 184.32h110.432v-216.336h-110.432v216.336z" />
<glyph unicode="&#xe11e;" glyph-name="priority_urgent" data-tags="priority_urgent" d="M434.64 293.952h146.224v-116.592h-146.224v116.592zM434.64 98.88h146.224v-116.592h-146.224v116.592zM856.288 614.448l-340.144 313.552-340.144-313.6 99.104-107.52 159.536 147.088v-280h146.224v295.52l176.32-162.56z" />
<glyph unicode="&#xe11f;" glyph-name="arrow_up" data-tags="arrow_up" d="M856.368 614.416l-340.192 313.584-340.192-313.6 99.12-107.536 159.568 147.104v-671.728h146.24v687.216l176.336-162.592z" />
<glyph unicode="&#xe120;" glyph-name="arrow_down" data-tags="arrow_down" d="M856.368 295.824l-340.192-313.584-340.192 313.6 99.12 107.536 159.568-147.104v671.728h146.24v-687.216l176.336 162.576z" />
<glyph unicode="&#xe121;" glyph-name="show_password" data-tags="show_password" d="M512 640c0.309 0.001 0.674 0.002 1.039 0.002 122.947 0 229.318-70.969 280.383-174.175l0.817-1.826c-52.336-105.078-159.005-176.001-282.24-176.001s-229.904 70.924-281.418 174.18l-0.822 1.821c51.882 105.033 158.254 176.002 281.201 176.002 0.365 0 0.731-0.001 1.096-0.002h-0.057zM512 704c-159.089-0.098-295.209-98.34-351.097-237.454l-0.903-2.546c56.712-141.722 192.878-240.009 352-240.009s295.288 98.287 351.099 237.463l0.901 2.546c-56.791 141.66-192.911 239.902-351.988 240h-0.012zM512 544c44.183 0 80-35.817 80-80s-35.817-80-80-80c-44.183 0-80 35.817-80 80v0c0 44.183 35.817 80 80 80v0zM512 608c-79.529 0-144-64.471-144-144s64.471-144 144-144c79.529 0 144 64.471 144 144v0c-0.127 79.478-64.522 143.873-143.988 144h-0.012z" />
<glyph unicode="&#xe122;" glyph-name="hide_password" data-tags="hide_password" d="M512 640c0.309 0.001 0.674 0.002 1.039 0.002 122.947 0 229.318-70.969 280.383-174.175l0.817-1.826c-19.346-39.312-45.282-72.51-76.708-99.495l-0.412-0.345 45.12-45.12c44.069 38.942 78.736 87.482 100.858 142.422l0.902 2.538c-56.883 141.737-193.15 240.001-352.368 240.001-41.493 0-81.427-6.674-118.788-19.006l2.676 0.765 52.8-52.8c19.037 4.234 40.989 6.785 63.492 7.038l0.188 0.002zM477.76 603.52l66.24-66.24c18.357-8.225 32.735-22.602 40.757-40.454l0.203-0.506 66.24-66.24c2.674 10.224 4.297 22 4.479 34.125l0.001 0.115c0 0.062 0 0.135 0 0.208 0 79.237-64.235 143.472-143.472 143.472-0.073 0-0.146 0-0.22 0h0.012c-12.186-0.033-23.976-1.666-35.191-4.699l0.951 0.219zM192.32 708.16l85.76-85.76c-52.032-40.982-92.498-94.408-117.184-155.872l-0.896-2.528c56.791-141.66 192.911-239.902 351.988-240h0.012c0.108 0 0.236 0 0.365 0 49.639 0 97.027 9.636 140.396 27.139l-2.52-0.899 109.44-109.44 45.12 45.12-567.36 567.68zM432.32 468.16l83.52-83.52c-1.135-0.349-2.449-0.578-3.806-0.639l-0.034-0.001c-44.183 0-80 35.817-80 80v0c0 1.6 0.32 2.56 0.32 4.16zM323.52 576.96l56-56c-7.267-16.814-11.502-36.39-11.52-56.953v-0.007c0.102-79.549 64.613-143.997 144.176-143.997 20.399 0 39.808 4.236 57.396 11.877l-0.932-0.361 31.36-31.36c-26.35-7.603-56.632-12.035-87.93-12.16h-0.070c-0.309-0.001-0.674-0.002-1.039-0.002-122.947 0-229.318 70.969-280.383 174.175l-0.817 1.826c22.743 45.383 54.411 83.194 92.967 112.385l0.793 0.575z" />
<glyph unicode="&#xe123;" glyph-name="name" data-tags="name" d="M517.328 662.672c40.498 0 73.328-32.83 73.328-73.328s-32.83-73.328-73.328-73.328c-40.498 0-73.328 32.83-73.328 73.328v0c0.154 40.436 32.892 73.174 73.313 73.328h0.015zM517.328 332.672c99.008 0 212.672-47.296 220-73.328v-36.672h-440v36.288c7.328 26.4 121.008 73.696 220 73.696zM517.328 736c-81.005 0-146.672-65.667-146.672-146.672s65.667-146.672 146.672-146.672c81.005 0 146.672 65.667 146.672 146.672v0c0 0.014 0 0.031 0 0.048 0 80.978-65.646 146.624-146.624 146.624-0.017 0-0.034 0-0.050 0h0.002zM517.328 406c-97.888 0-293.328-49.2-293.328-146.672v-110h586.672v110c0 97.472-195.44 146.672-293.344 146.672z" />
<glyph unicode="&#xe124;" glyph-name="organisation" data-tags="organisation" d="M575.728 635.088v66.448h-127.904v-66.464zM256 568.624v-365.52h511.6v365.52zM767.648 635.088c35.476-0.567 64.016-29.459 64.016-65.016 0-0.509-0.006-1.017-0.017-1.523l0.001 0.075v-365.52c0.010-0.431 0.016-0.939 0.016-1.448 0-35.557-28.541-64.449-63.963-65.016l-0.053-0.001h-511.648c-35.476 0.567-64.016 29.459-64.016 65.016 0 0.509 0.006 1.017 0.017 1.523l-0.001-0.075 0.32 365.52c-0.015 0.512-0.023 1.115-0.023 1.72 0 35.393 28.395 64.153 63.647 64.743l0.055 0.001h127.904v66.448c-0.010 0.431-0.016 0.939-0.016 1.448 0 35.557 28.541 64.449 63.963 65.016l0.053 0.001h127.904c35.476-0.567 64.016-29.459 64.016-65.016 0-0.509-0.006-1.017-0.017-1.523l0.001 0.075v-66.464z" />
<glyph unicode="&#xe125;" glyph-name="phone" data-tags="phone" d="M324.8 686.016c2.087-31.276 7.373-60.417 15.572-88.312l-0.724 2.872-39.616-39.584c-12.986 36.745-21.92 79.311-24.987 123.493l-0.085 1.531h49.84zM650.048 289.504c25.074-7.384 54.325-12.665 84.45-14.774l1.326-0.074v-49.152c-45.87 3.244-88.549 12.052-128.944 25.795l3.584-1.059 39.584 39.248zM356.448 752h-115.456c-18.199-0.054-32.938-14.793-32.992-32.987v-0.005c0-0.014 0-0.031 0-0.048 0-309.695 251.057-560.752 560.752-560.752 0.017 0 0.034 0 0.051 0h-0.003c18.199 0.054 32.938 14.793 32.992 32.987v115.205c-0.054 18.199-14.793 32.938-32.987 32.992h-0.005c-0.091 0-0.199 0-0.308 0-41.998 0-82.388 6.88-120.106 19.575l2.654-0.775c-2.774 1.023-5.977 1.615-9.319 1.615-0.318 0-0.635-0.005-0.951-0.016l0.046 0.001c-9.121-0.047-17.38-3.701-23.431-9.607l-72.569-72.569c-93.944 48.744-168.654 123.459-216.080 214.637l-1.312 2.771 72.576 72.576c6.059 6.002 9.811 14.324 9.811 23.523 0 3.6-0.575 7.066-1.637 10.311l0.066-0.234c-11.92 34.989-18.8 75.294-18.8 117.207 0 0.194 0 0.389 0 0.583v-0.030c-0.027 18.22-14.776 32.985-32.987 33.040h-0.005z" />
<glyph unicode="&#xe126;" glyph-name="email" data-tags="email" d="M824.64 642.016c-0.109 34.931-28.397 63.219-63.317 63.328h-506.667c-34.931-0.109-63.219-28.397-63.328-63.317v-379.995c0.109-34.931 28.397-63.219 63.317-63.328h506.667c34.931 0.109 63.219 28.397 63.328 63.317v0.011zM761.312 642.016l-253.328-158.016-253.328 158.016zM761.312 262.032h-506.656v316.656l253.328-158.4 253.328 158.4z" />
<glyph unicode="&#xe127;" glyph-name="password" data-tags="password" d="M684.544 575.76h-30.016v60.064c0 82.927-67.225 150.152-150.152 150.152s-150.152-67.225-150.152-150.152v0-60.064h-30.032c-33.132-0.1-59.964-26.932-60.064-60.054v-300.314c0.1-33.132 26.932-59.964 60.054-60.064h360.362c33.132 0.1 59.964 26.932 60.064 60.054v300.314c-0.1 33.132-26.932 59.964-60.054 60.064h-0.010zM414.272 635.824c-0.005 0.357-0.008 0.778-0.008 1.201 0 49.759 40.337 90.096 90.096 90.096s90.096-40.337 90.096-90.096c0-0.422-0.003-0.844-0.009-1.264l0.001 0.064v-60.064h-180.176zM684.544 215.392h-360.352v300.304h360.352zM504.368 305.488c33.172 0 60.064 26.892 60.064 60.064s-26.892 60.064-60.064 60.064c-33.172 0-60.064-26.892-60.064-60.064v0c0.1-33.132 26.932-59.964 60.054-60.064h0.010z" />
<glyph unicode="&#xe128;" glyph-name="add" data-tags="add" d="M451.2 16v371.2h-371.2v137.472h371.2v371.328h137.6v-371.2h371.2v-137.472h-371.2v-371.2z" />
<glyph unicode="&#xe129;" glyph-name="sign_out" data-tags="sign_out" d="M520 880c228.865-0.049 416.884-174.863 437.867-398.246l0.133-1.754h-358v120c0 0.002 0 0.005 0 0.007 0 22.091-17.909 40-40 40-11.048 0-21.049-4.479-28.288-11.719l-160-160c-7.236-7.238-11.711-17.236-11.711-28.28s4.475-21.042 11.712-28.28l160-160c7.239-7.241 17.24-11.719 28.288-11.719 22.088 0 39.995 17.904 40 39.991v120.001h358c-21.205-225.096-209.241-399.84-438.090-399.84-242.961 0-439.92 196.959-439.92 439.92s196.959 439.92 439.92 439.92c0.032 0 0.064 0 0.096 0h-0.005z" />
<glyph unicode="&#xe12a;" glyph-name="profile" data-tags="profile" d="M731.536 665.408c0-118.516-96.076-214.592-214.592-214.592s-214.592 96.076-214.592 214.592c0 118.516 96.076 214.592 214.592 214.592s214.592-96.076 214.592-214.592zM516.944 389.68c-214.808 0-388.944-174.136-388.944-388.944v0h777.888c0 214.808-174.136 388.944-388.944 388.944v0z" />
<glyph unicode="&#xe12b;" glyph-name="warning" data-tags="warning" d="M148.8 50.928c-37.97 0.036-68.737 30.825-68.737 68.8 0 12.62 3.398 24.447 9.329 34.615l-0.176-0.327 371.2 643.312c11.969 20.698 34 34.401 59.231 34.401 0.124 0 0.248 0 0.372-0.001h-0.019c0.083 0 0.18 0.001 0.278 0.001 25.251 0 47.296-13.724 59.083-34.12l0.175-0.329 371.2-643.312c5.755-9.841 9.153-21.668 9.153-34.288 0-37.975-30.767-68.764-68.734-68.8h-0.003zM148.8 119.728h742.304l-371.2 643.392zM487.232 214.448c0.009 18.029 14.626 32.64 32.656 32.64v0c18.023-0.009 32.631-14.617 32.64-32.639v-0.001c-0.009-18.023-14.617-32.631-32.639-32.64h-0.001c-17.977 0.018-32.551 14.559-32.624 32.521v0.007zM485.632 292.016v308.928h68.8v-308.928z" />
<glyph unicode="&#xe12c;" glyph-name="camera" data-tags="camera" d="M510.128 551.52c-81.871 0-148.24-66.369-148.24-148.24s66.369-148.24 148.24-148.24c81.871 0 148.24 66.369 148.24 148.24v0c0 81.871-66.369 148.24-148.24 148.24v0zM905.424 699.76h-118.592c-17.785 0.847-32.735 12.132-38.92 27.83l-0.104 0.298-30.656 92c-6.3 15.984-21.245 27.259-38.924 28.108l-0.1 0.004h-336c-17.785-0.847-32.735-12.132-38.92-27.83l-0.104-0.298-30.656-92c-6.3-15.984-21.245-27.259-38.924-28.108l-0.1-0.004h-118.592c-54.494-0.208-98.615-44.323-98.832-98.795v-444.741c0.208-54.5 44.333-98.624 98.812-98.832h790.612c54.5 0.208 98.624 44.333 98.832 98.812v444.74c-0.217 54.493-44.338 98.608-98.812 98.816h-0.020zM510.128 156.224c-136.445 0-247.056 110.611-247.056 247.056s110.611 247.056 247.056 247.056c136.44 0 247.047-110.602 247.056-247.039v-0.001c0-0.005 0-0.010 0-0.016 0-136.445-110.611-247.056-247.056-247.056v0zM870.832 531.824c-19.105 0-34.592 15.487-34.592 34.592s15.487 34.592 34.592 34.592c19.105 0 34.592-15.487 34.592-34.592 0-0.006 0-0.011 0-0.017v0.001c-0.009-19.098-15.493-34.576-34.592-34.576v0z" />
</font>
</defs>
</svg>
