<svg xmlns="http://www.w3.org/2000/svg" xmlns:xlink="http://www.w3.org/1999/xlink" width="55.024" height="55" viewBox="0 0 55.024 55"><defs><style>.a{fill:url(#a);}.b{filter:url(#h);}.c{filter:url(#e);}.d{filter:url(#b);}</style><linearGradient id="a" x2="1" y2="1" gradientUnits="objectBoundingBox"><stop offset="0" stop-color="#9a45d2"/><stop offset="1" stop-color="#6747d4"/></linearGradient><filter id="b" x="0" y="5.253" width="44.174" height="44.174" filterUnits="userSpaceOnUse"><feOffset dy="7" input="SourceAlpha"/><feGaussianBlur stdDeviation="6" result="c"/><feFlood flood-color="#c2afff" flood-opacity="0.78"/><feComposite operator="in" in2="c"/><feComposite in="SourceGraphic"/></filter><filter id="e" x="0" y="16.771" width="55.022" height="38.229" filterUnits="userSpaceOnUse"><feOffset dy="7" input="SourceAlpha"/><feGaussianBlur stdDeviation="6" result="f"/><feFlood flood-color="#c2afff" flood-opacity="0.702"/><feComposite operator="in" in2="f"/><feComposite in="SourceGraphic"/></filter><filter id="h" x="1.576" y="0" width="53.448" height="52.771" filterUnits="userSpaceOnUse"><feOffset dy="7" input="SourceAlpha"/><feGaussianBlur stdDeviation="6" result="i"/><feFlood flood-color="#c2afff" flood-opacity="0.722"/><feComposite operator="in" in2="i"/><feComposite in="SourceGraphic"/></filter></defs><g transform="translate(18 10.673)"><g transform="translate(0 5.58)"><g class="d" transform="matrix(1, 0, 0, 1, -18, -16.25)"><path class="a" d="M6.8,146.521l1.379-.726L6.8,145.07l.831-1.318-1.557.061.061-1.557-1.318.831-.726-1.379-.726,1.379-1.318-.831.061,1.557-1.557-.061.831,1.318L0,145.8l1.379.726-.831,1.318,1.557-.061-.061,1.557,1.318-.831.726,1.379.726-1.379,1.318.831-.061-1.557,1.557.061Zm-2.708,1.318A2.043,2.043,0,1,1,6.13,145.8,2.043,2.043,0,0,1,4.087,147.839Z" transform="translate(18 -125.46)"/></g></g><g transform="translate(0 17.098)"><g class="c" transform="matrix(1, 0, 0, 1, -18, -27.77)"><path class="a" d="M17.117,452.339a1.982,1.982,0,0,1-2.529,0,3.087,3.087,0,0,0-3.812,0,1.982,1.982,0,0,1-2.529,0,2.978,2.978,0,0,0-1.906-.659,2.978,2.978,0,0,0-1.906.659,1.876,1.876,0,0,1-1.265.456,1.875,1.875,0,0,1-1.265-.456A2.978,2.978,0,0,0,0,451.68v1.115a1.876,1.876,0,0,1,1.265.456,2.978,2.978,0,0,0,1.906.659,2.978,2.978,0,0,0,1.906-.659,1.876,1.876,0,0,1,1.265-.456,1.876,1.876,0,0,1,1.265.456,3.086,3.086,0,0,0,3.811,0,1.982,1.982,0,0,1,2.529,0,3.086,3.086,0,0,0,3.812,0,1.876,1.876,0,0,1,1.265-.456V451.68A2.978,2.978,0,0,0,17.117,452.339Z" transform="translate(18 -423.91)"/></g></g><g transform="translate(1.577 0.327)"><g transform="translate(0 0)"><g class="b" transform="matrix(1, 0, 0, 1, -19.58, -11)"><path class="a" d="M59.3,4.386A6.084,6.084,0,0,0,56.355,1.43l.263-.722L55.57.327l-.263.722a6.139,6.139,0,0,0-7.325,3.83l-.225.618.647.12A9.591,9.591,0,0,1,51.374,6.7l.13.073h.206a5.788,5.788,0,0,1,1.448.184l-2.6,7.135-.2,0a15.337,15.337,0,0,0-7.935,2.2,4.892,4.892,0,0,1,.97.56c.326.229.36.253.624.253s.3-.024.623-.253a4.2,4.2,0,0,1,5.094,0c.326.229.36.253.624.253s.3-.024.623-.253a4.2,4.2,0,0,1,5.094,0c.326.229.36.253.624.253s.3-.024.624-.253a4.893,4.893,0,0,1,.97-.56,15.307,15.307,0,0,0-6.573-2.136l2.479-6.812a5.79,5.79,0,0,1,1.27.826l.114.1.147.027a9.592,9.592,0,0,1,2.97,1.081l.573.324.225-.618A6.09,6.09,0,0,0,59.3,4.386Z" transform="translate(-22.85 10.67)"/></g></g></g></g></svg>